<mxfile host="Electron" modified="2024-07-18T16:09:15.881Z" agent="Mozilla/5.0 (Macintosh; Intel Mac OS X 10_15_7) AppleWebKit/537.36 (KHTML, like Gecko) draw.io/24.6.4 Chrome/124.0.6367.207 Electron/30.0.6 Safari/537.36" etag="_39HQZJNnQ6n6lND6VVJ" version="24.6.4" type="device" pages="6">
  <diagram name="Исходный вариант" id="-H_mtQnk-PTXWXPvYvuk">
    <mxGraphModel dx="1434" dy="984" grid="1" gridSize="10" guides="1" tooltips="1" connect="1" arrows="1" fold="1" page="1" pageScale="1" pageWidth="1169" pageHeight="827" math="0" shadow="0">
      <root>
        <mxCell id="0" />
        <mxCell id="1" parent="0" />
        <mxCell id="zA23MoTUsTF4_91t8viU-2" value="MongoDB" style="shape=cylinder3;whiteSpace=wrap;html=1;boundedLbl=1;backgroundOutline=1;size=15;fillColor=#008a00;strokeColor=#005700;fontColor=#ffffff;" parent="1" vertex="1">
          <mxGeometry x="560" y="280" width="60" height="80" as="geometry" />
        </mxCell>
        <mxCell id="zA23MoTUsTF4_91t8viU-3" value="pymongo-api" style="rounded=1;whiteSpace=wrap;html=1;fillColor=#1ba1e2;fontColor=#ffffff;strokeColor=#006EAF;" parent="1" vertex="1">
          <mxGeometry x="360" y="290" width="120" height="60" as="geometry" />
        </mxCell>
        <mxCell id="zA23MoTUsTF4_91t8viU-4" style="edgeStyle=orthogonalEdgeStyle;rounded=0;orthogonalLoop=1;jettySize=auto;html=1;exitX=1;exitY=0.5;exitDx=0;exitDy=0;entryX=0;entryY=0.5;entryDx=0;entryDy=0;entryPerimeter=0;" parent="1" source="zA23MoTUsTF4_91t8viU-3" target="zA23MoTUsTF4_91t8viU-2" edge="1">
          <mxGeometry relative="1" as="geometry" />
        </mxCell>
      </root>
    </mxGraphModel>
  </diagram>
  <diagram name="Шаг 1" id="4e_Kv4HwGT4t2OwSAk0u">
    <mxGraphModel dx="1434" dy="984" grid="1" gridSize="10" guides="1" tooltips="1" connect="1" arrows="1" fold="1" page="1" pageScale="1" pageWidth="1169" pageHeight="827" math="0" shadow="0">
      <root>
        <mxCell id="laron7uMCuQX3AkUXqQZ-0" />
        <mxCell id="laron7uMCuQX3AkUXqQZ-1" parent="laron7uMCuQX3AkUXqQZ-0" />
        <mxCell id="laron7uMCuQX3AkUXqQZ-2" value="Mongos Router" style="shape=cylinder3;whiteSpace=wrap;html=1;boundedLbl=1;backgroundOutline=1;size=15;fillColor=#b0e3e6;strokeColor=#0e8088;" parent="laron7uMCuQX3AkUXqQZ-1" vertex="1">
          <mxGeometry x="560" y="280" width="60" height="80" as="geometry" />
        </mxCell>
        <mxCell id="laron7uMCuQX3AkUXqQZ-3" value="pymongo-api" style="rounded=1;whiteSpace=wrap;html=1;fillColor=#1ba1e2;fontColor=#ffffff;strokeColor=#006EAF;" parent="laron7uMCuQX3AkUXqQZ-1" vertex="1">
          <mxGeometry x="360" y="290" width="120" height="60" as="geometry" />
        </mxCell>
        <mxCell id="laron7uMCuQX3AkUXqQZ-4" style="edgeStyle=orthogonalEdgeStyle;rounded=0;orthogonalLoop=1;jettySize=auto;html=1;exitX=1;exitY=0.5;exitDx=0;exitDy=0;entryX=0;entryY=0.5;entryDx=0;entryDy=0;entryPerimeter=0;" parent="laron7uMCuQX3AkUXqQZ-1" source="laron7uMCuQX3AkUXqQZ-3" target="laron7uMCuQX3AkUXqQZ-2" edge="1">
          <mxGeometry relative="1" as="geometry" />
        </mxCell>
        <mxCell id="DmxQVZsoiFtFpF-T-Bu_-0" value="MongoDB - Shard 1" style="shape=cylinder3;whiteSpace=wrap;html=1;boundedLbl=1;backgroundOutline=1;size=15;fillColor=#60a917;fontColor=#ffffff;strokeColor=#2D7600;" parent="laron7uMCuQX3AkUXqQZ-1" vertex="1">
          <mxGeometry x="680" y="230" width="60" height="80" as="geometry" />
        </mxCell>
        <mxCell id="DmxQVZsoiFtFpF-T-Bu_-1" value="MongoDB - Shard 2" style="shape=cylinder3;whiteSpace=wrap;html=1;boundedLbl=1;backgroundOutline=1;size=15;fillColor=#60a917;fontColor=#ffffff;strokeColor=#2D7600;" parent="laron7uMCuQX3AkUXqQZ-1" vertex="1">
          <mxGeometry x="680" y="340" width="60" height="80" as="geometry" />
        </mxCell>
        <mxCell id="KSm-p7p8SfGLqdcfMc18-0" value="Mongo ConfigSrv" style="shape=cylinder3;whiteSpace=wrap;html=1;boundedLbl=1;backgroundOutline=1;size=15;fillColor=#fad7ac;strokeColor=#b46504;" parent="laron7uMCuQX3AkUXqQZ-1" vertex="1">
          <mxGeometry x="560" y="430" width="60" height="80" as="geometry" />
        </mxCell>
        <mxCell id="KSm-p7p8SfGLqdcfMc18-1" style="edgeStyle=orthogonalEdgeStyle;rounded=0;orthogonalLoop=1;jettySize=auto;html=1;entryX=0;entryY=0.5;entryDx=0;entryDy=0;entryPerimeter=0;" parent="laron7uMCuQX3AkUXqQZ-1" source="laron7uMCuQX3AkUXqQZ-2" target="DmxQVZsoiFtFpF-T-Bu_-0" edge="1">
          <mxGeometry relative="1" as="geometry" />
        </mxCell>
        <mxCell id="KSm-p7p8SfGLqdcfMc18-2" style="edgeStyle=orthogonalEdgeStyle;rounded=0;orthogonalLoop=1;jettySize=auto;html=1;entryX=0;entryY=0.5;entryDx=0;entryDy=0;entryPerimeter=0;" parent="laron7uMCuQX3AkUXqQZ-1" source="laron7uMCuQX3AkUXqQZ-2" target="DmxQVZsoiFtFpF-T-Bu_-1" edge="1">
          <mxGeometry relative="1" as="geometry" />
        </mxCell>
        <mxCell id="KSm-p7p8SfGLqdcfMc18-3" style="edgeStyle=orthogonalEdgeStyle;rounded=0;orthogonalLoop=1;jettySize=auto;html=1;entryX=0.5;entryY=0;entryDx=0;entryDy=0;entryPerimeter=0;" parent="laron7uMCuQX3AkUXqQZ-1" source="laron7uMCuQX3AkUXqQZ-2" target="KSm-p7p8SfGLqdcfMc18-0" edge="1">
          <mxGeometry relative="1" as="geometry" />
        </mxCell>
        <mxCell id="KSm-p7p8SfGLqdcfMc18-5" style="edgeStyle=orthogonalEdgeStyle;rounded=0;orthogonalLoop=1;jettySize=auto;html=1;entryX=1;entryY=0.5;entryDx=0;entryDy=0;entryPerimeter=0;" parent="laron7uMCuQX3AkUXqQZ-1" source="DmxQVZsoiFtFpF-T-Bu_-0" target="KSm-p7p8SfGLqdcfMc18-0" edge="1">
          <mxGeometry relative="1" as="geometry">
            <Array as="points">
              <mxPoint x="810" y="270" />
              <mxPoint x="810" y="470" />
            </Array>
          </mxGeometry>
        </mxCell>
        <mxCell id="KSm-p7p8SfGLqdcfMc18-6" style="edgeStyle=orthogonalEdgeStyle;rounded=0;orthogonalLoop=1;jettySize=auto;html=1;entryX=1;entryY=0.5;entryDx=0;entryDy=0;entryPerimeter=0;" parent="laron7uMCuQX3AkUXqQZ-1" source="DmxQVZsoiFtFpF-T-Bu_-1" target="KSm-p7p8SfGLqdcfMc18-0" edge="1">
          <mxGeometry relative="1" as="geometry">
            <Array as="points">
              <mxPoint x="770" y="380" />
              <mxPoint x="770" y="470" />
            </Array>
          </mxGeometry>
        </mxCell>
      </root>
    </mxGraphModel>
  </diagram>
  <diagram name="Шаг 2" id="sPypKgVwDpc71hCeX1ST">
    <mxGraphModel dx="1434" dy="1811" grid="1" gridSize="10" guides="1" tooltips="1" connect="1" arrows="1" fold="1" page="1" pageScale="1" pageWidth="1169" pageHeight="827" math="0" shadow="0">
      <root>
        <mxCell id="Iwnf0OyGpcGb0oops5nN-0" />
        <mxCell id="Iwnf0OyGpcGb0oops5nN-1" parent="Iwnf0OyGpcGb0oops5nN-0" />
        <mxCell id="Iwnf0OyGpcGb0oops5nN-2" value="Mongos Router" style="shape=cylinder3;whiteSpace=wrap;html=1;boundedLbl=1;backgroundOutline=1;size=15;fillColor=#b0e3e6;strokeColor=#0e8088;" parent="Iwnf0OyGpcGb0oops5nN-1" vertex="1">
          <mxGeometry x="560" y="280" width="60" height="80" as="geometry" />
        </mxCell>
        <mxCell id="Iwnf0OyGpcGb0oops5nN-3" value="pymongo-api" style="rounded=1;whiteSpace=wrap;html=1;fillColor=#1ba1e2;fontColor=#ffffff;strokeColor=#006EAF;" parent="Iwnf0OyGpcGb0oops5nN-1" vertex="1">
          <mxGeometry x="360" y="290" width="120" height="60" as="geometry" />
        </mxCell>
        <mxCell id="Iwnf0OyGpcGb0oops5nN-4" style="edgeStyle=orthogonalEdgeStyle;rounded=0;orthogonalLoop=1;jettySize=auto;html=1;exitX=1;exitY=0.5;exitDx=0;exitDy=0;entryX=0;entryY=0.5;entryDx=0;entryDy=0;entryPerimeter=0;" parent="Iwnf0OyGpcGb0oops5nN-1" source="Iwnf0OyGpcGb0oops5nN-3" target="Iwnf0OyGpcGb0oops5nN-2" edge="1">
          <mxGeometry relative="1" as="geometry" />
        </mxCell>
        <mxCell id="Iwnf0OyGpcGb0oops5nN-5" value="MongoDB - Shard 1" style="shape=cylinder3;whiteSpace=wrap;html=1;boundedLbl=1;backgroundOutline=1;size=15;fillColor=#60a917;fontColor=#ffffff;strokeColor=#2D7600;" parent="Iwnf0OyGpcGb0oops5nN-1" vertex="1">
          <mxGeometry x="680" y="230" width="60" height="80" as="geometry" />
        </mxCell>
        <mxCell id="Iwnf0OyGpcGb0oops5nN-6" value="MongoDB - Shard 2" style="shape=cylinder3;whiteSpace=wrap;html=1;boundedLbl=1;backgroundOutline=1;size=15;fillColor=#60a917;fontColor=#ffffff;strokeColor=#2D7600;" parent="Iwnf0OyGpcGb0oops5nN-1" vertex="1">
          <mxGeometry x="680" y="340" width="60" height="80" as="geometry" />
        </mxCell>
        <mxCell id="Iwnf0OyGpcGb0oops5nN-7" value="Mongo ConfigSrv" style="shape=cylinder3;whiteSpace=wrap;html=1;boundedLbl=1;backgroundOutline=1;size=15;fillColor=#fad7ac;strokeColor=#b46504;" parent="Iwnf0OyGpcGb0oops5nN-1" vertex="1">
          <mxGeometry x="560" y="430" width="60" height="80" as="geometry" />
        </mxCell>
        <mxCell id="Iwnf0OyGpcGb0oops5nN-8" style="edgeStyle=orthogonalEdgeStyle;rounded=0;orthogonalLoop=1;jettySize=auto;html=1;entryX=0;entryY=0.5;entryDx=0;entryDy=0;entryPerimeter=0;" parent="Iwnf0OyGpcGb0oops5nN-1" source="Iwnf0OyGpcGb0oops5nN-2" target="Iwnf0OyGpcGb0oops5nN-5" edge="1">
          <mxGeometry relative="1" as="geometry" />
        </mxCell>
        <mxCell id="Iwnf0OyGpcGb0oops5nN-9" style="edgeStyle=orthogonalEdgeStyle;rounded=0;orthogonalLoop=1;jettySize=auto;html=1;entryX=0;entryY=0.5;entryDx=0;entryDy=0;entryPerimeter=0;" parent="Iwnf0OyGpcGb0oops5nN-1" source="Iwnf0OyGpcGb0oops5nN-2" target="Iwnf0OyGpcGb0oops5nN-6" edge="1">
          <mxGeometry relative="1" as="geometry" />
        </mxCell>
        <mxCell id="Iwnf0OyGpcGb0oops5nN-10" style="edgeStyle=orthogonalEdgeStyle;rounded=0;orthogonalLoop=1;jettySize=auto;html=1;entryX=0.5;entryY=0;entryDx=0;entryDy=0;entryPerimeter=0;" parent="Iwnf0OyGpcGb0oops5nN-1" source="Iwnf0OyGpcGb0oops5nN-2" target="Iwnf0OyGpcGb0oops5nN-7" edge="1">
          <mxGeometry relative="1" as="geometry" />
        </mxCell>
        <mxCell id="Iwnf0OyGpcGb0oops5nN-11" style="edgeStyle=orthogonalEdgeStyle;rounded=0;orthogonalLoop=1;jettySize=auto;html=1;entryX=1;entryY=0.5;entryDx=0;entryDy=0;entryPerimeter=0;" parent="Iwnf0OyGpcGb0oops5nN-1" source="Iwnf0OyGpcGb0oops5nN-5" target="Iwnf0OyGpcGb0oops5nN-7" edge="1">
          <mxGeometry relative="1" as="geometry">
            <Array as="points">
              <mxPoint x="810" y="270" />
              <mxPoint x="810" y="470" />
            </Array>
          </mxGeometry>
        </mxCell>
        <mxCell id="Iwnf0OyGpcGb0oops5nN-12" style="edgeStyle=orthogonalEdgeStyle;rounded=0;orthogonalLoop=1;jettySize=auto;html=1;entryX=1;entryY=0.5;entryDx=0;entryDy=0;entryPerimeter=0;" parent="Iwnf0OyGpcGb0oops5nN-1" source="Iwnf0OyGpcGb0oops5nN-6" target="Iwnf0OyGpcGb0oops5nN-7" edge="1">
          <mxGeometry relative="1" as="geometry">
            <Array as="points">
              <mxPoint x="770" y="380" />
              <mxPoint x="770" y="470" />
            </Array>
          </mxGeometry>
        </mxCell>
        <mxCell id="idi4WdMLkzi2hg1CakvA-0" value="MongoDB - Shard 1&lt;div&gt;Repl 1&lt;/div&gt;" style="shape=cylinder3;whiteSpace=wrap;html=1;boundedLbl=1;backgroundOutline=1;size=15;fillColor=#d5e8d4;gradientColor=#97d077;strokeColor=#82b366;" parent="Iwnf0OyGpcGb0oops5nN-1" vertex="1">
          <mxGeometry x="870" y="-20" width="60" height="80" as="geometry" />
        </mxCell>
        <mxCell id="idi4WdMLkzi2hg1CakvA-1" value="MongoDB - Shard 1&lt;div&gt;Repl 2&lt;/div&gt;" style="shape=cylinder3;whiteSpace=wrap;html=1;boundedLbl=1;backgroundOutline=1;size=15;fillColor=#d5e8d4;gradientColor=#97d077;strokeColor=#82b366;" parent="Iwnf0OyGpcGb0oops5nN-1" vertex="1">
          <mxGeometry x="870" y="80" width="60" height="80" as="geometry" />
        </mxCell>
        <mxCell id="idi4WdMLkzi2hg1CakvA-2" value="MongoDB - Shard 1&lt;div&gt;Repl 3&lt;/div&gt;" style="shape=cylinder3;whiteSpace=wrap;html=1;boundedLbl=1;backgroundOutline=1;size=15;fillColor=#d5e8d4;gradientColor=#97d077;strokeColor=#82b366;" parent="Iwnf0OyGpcGb0oops5nN-1" vertex="1">
          <mxGeometry x="870" y="183.5" width="60" height="80" as="geometry" />
        </mxCell>
        <mxCell id="idi4WdMLkzi2hg1CakvA-3" value="MongoDB - Shard 2&lt;div&gt;Repl 1&lt;/div&gt;" style="shape=cylinder3;whiteSpace=wrap;html=1;boundedLbl=1;backgroundOutline=1;size=15;fillColor=#cdeb8b;strokeColor=#36393d;" parent="Iwnf0OyGpcGb0oops5nN-1" vertex="1">
          <mxGeometry x="870" y="380" width="60" height="80" as="geometry" />
        </mxCell>
        <mxCell id="idi4WdMLkzi2hg1CakvA-4" value="MongoDB - Shard 2&lt;div&gt;Repl 2&lt;/div&gt;" style="shape=cylinder3;whiteSpace=wrap;html=1;boundedLbl=1;backgroundOutline=1;size=15;fillColor=#cdeb8b;strokeColor=#36393d;" parent="Iwnf0OyGpcGb0oops5nN-1" vertex="1">
          <mxGeometry x="870" y="480" width="60" height="80" as="geometry" />
        </mxCell>
        <mxCell id="idi4WdMLkzi2hg1CakvA-5" value="MongoDB - Shard 2&lt;div&gt;Repl 3&lt;/div&gt;" style="shape=cylinder3;whiteSpace=wrap;html=1;boundedLbl=1;backgroundOutline=1;size=15;fillColor=#cdeb8b;strokeColor=#36393d;" parent="Iwnf0OyGpcGb0oops5nN-1" vertex="1">
          <mxGeometry x="870" y="583.5" width="60" height="80" as="geometry" />
        </mxCell>
        <mxCell id="idi4WdMLkzi2hg1CakvA-6" style="edgeStyle=orthogonalEdgeStyle;rounded=0;orthogonalLoop=1;jettySize=auto;html=1;entryX=0;entryY=0.5;entryDx=0;entryDy=0;entryPerimeter=0;" parent="Iwnf0OyGpcGb0oops5nN-1" source="Iwnf0OyGpcGb0oops5nN-6" target="idi4WdMLkzi2hg1CakvA-3" edge="1">
          <mxGeometry relative="1" as="geometry">
            <Array as="points">
              <mxPoint x="710" y="500" />
              <mxPoint x="840" y="500" />
              <mxPoint x="840" y="420" />
            </Array>
          </mxGeometry>
        </mxCell>
        <mxCell id="idi4WdMLkzi2hg1CakvA-7" style="edgeStyle=orthogonalEdgeStyle;rounded=0;orthogonalLoop=1;jettySize=auto;html=1;entryX=0;entryY=0.5;entryDx=0;entryDy=0;entryPerimeter=0;" parent="Iwnf0OyGpcGb0oops5nN-1" source="Iwnf0OyGpcGb0oops5nN-6" target="idi4WdMLkzi2hg1CakvA-4" edge="1">
          <mxGeometry relative="1" as="geometry">
            <Array as="points">
              <mxPoint x="710" y="520" />
            </Array>
          </mxGeometry>
        </mxCell>
        <mxCell id="idi4WdMLkzi2hg1CakvA-8" style="edgeStyle=orthogonalEdgeStyle;rounded=0;orthogonalLoop=1;jettySize=auto;html=1;entryX=0;entryY=0.5;entryDx=0;entryDy=0;entryPerimeter=0;" parent="Iwnf0OyGpcGb0oops5nN-1" source="Iwnf0OyGpcGb0oops5nN-6" target="idi4WdMLkzi2hg1CakvA-5" edge="1">
          <mxGeometry relative="1" as="geometry">
            <Array as="points">
              <mxPoint x="710" y="624" />
              <mxPoint x="805" y="624" />
            </Array>
          </mxGeometry>
        </mxCell>
        <mxCell id="idi4WdMLkzi2hg1CakvA-9" style="edgeStyle=orthogonalEdgeStyle;rounded=0;orthogonalLoop=1;jettySize=auto;html=1;entryX=0;entryY=0.5;entryDx=0;entryDy=0;entryPerimeter=0;" parent="Iwnf0OyGpcGb0oops5nN-1" source="Iwnf0OyGpcGb0oops5nN-5" target="idi4WdMLkzi2hg1CakvA-0" edge="1">
          <mxGeometry relative="1" as="geometry">
            <Array as="points">
              <mxPoint x="710" y="20" />
            </Array>
          </mxGeometry>
        </mxCell>
        <mxCell id="idi4WdMLkzi2hg1CakvA-11" style="edgeStyle=orthogonalEdgeStyle;rounded=0;orthogonalLoop=1;jettySize=auto;html=1;entryX=0;entryY=0.5;entryDx=0;entryDy=0;entryPerimeter=0;" parent="Iwnf0OyGpcGb0oops5nN-1" source="Iwnf0OyGpcGb0oops5nN-5" target="idi4WdMLkzi2hg1CakvA-1" edge="1">
          <mxGeometry relative="1" as="geometry">
            <Array as="points">
              <mxPoint x="710" y="120" />
            </Array>
          </mxGeometry>
        </mxCell>
        <mxCell id="idi4WdMLkzi2hg1CakvA-12" style="edgeStyle=orthogonalEdgeStyle;rounded=0;orthogonalLoop=1;jettySize=auto;html=1;entryX=0;entryY=0.431;entryDx=0;entryDy=0;entryPerimeter=0;" parent="Iwnf0OyGpcGb0oops5nN-1" source="Iwnf0OyGpcGb0oops5nN-5" target="idi4WdMLkzi2hg1CakvA-2" edge="1">
          <mxGeometry relative="1" as="geometry">
            <Array as="points">
              <mxPoint x="710" y="218" />
            </Array>
          </mxGeometry>
        </mxCell>
      </root>
    </mxGraphModel>
  </diagram>
  <diagram name="Шаг 3" id="qadEDGwDbO9d0boL-V0X">
    <mxGraphModel dx="1434" dy="1811" grid="1" gridSize="10" guides="1" tooltips="1" connect="1" arrows="1" fold="1" page="1" pageScale="1" pageWidth="1169" pageHeight="827" math="0" shadow="0">
      <root>
        <mxCell id="Le4JkzimExHZiCb6T8Jv-0" />
        <mxCell id="Le4JkzimExHZiCb6T8Jv-1" parent="Le4JkzimExHZiCb6T8Jv-0" />
        <mxCell id="UDrm5yRex9dJHnbE22YT-0" value="Redis&lt;div&gt;Cache&lt;/div&gt;" style="shape=cylinder3;whiteSpace=wrap;html=1;boundedLbl=1;backgroundOutline=1;size=15;fillColor=#fad9d5;strokeColor=#ae4132;" parent="Le4JkzimExHZiCb6T8Jv-1" vertex="1">
          <mxGeometry x="490" y="140" width="60" height="80" as="geometry" />
        </mxCell>
        <mxCell id="UDrm5yRex9dJHnbE22YT-1" style="edgeStyle=orthogonalEdgeStyle;rounded=0;orthogonalLoop=1;jettySize=auto;html=1;entryX=0;entryY=0;entryDx=0;entryDy=52.5;entryPerimeter=0;" parent="Le4JkzimExHZiCb6T8Jv-1" target="UDrm5yRex9dJHnbE22YT-0" edge="1">
          <mxGeometry relative="1" as="geometry">
            <Array as="points">
              <mxPoint x="420" y="193" />
            </Array>
            <mxPoint x="420" y="290" as="sourcePoint" />
          </mxGeometry>
        </mxCell>
        <mxCell id="P0hghUWbtCA9-1cL2b6A-0" value="Mongos Router" style="shape=cylinder3;whiteSpace=wrap;html=1;boundedLbl=1;backgroundOutline=1;size=15;fillColor=#b0e3e6;strokeColor=#0e8088;" vertex="1" parent="Le4JkzimExHZiCb6T8Jv-1">
          <mxGeometry x="560" y="280" width="60" height="80" as="geometry" />
        </mxCell>
        <mxCell id="P0hghUWbtCA9-1cL2b6A-1" value="pymongo-api" style="rounded=1;whiteSpace=wrap;html=1;fillColor=#1ba1e2;fontColor=#ffffff;strokeColor=#006EAF;" vertex="1" parent="Le4JkzimExHZiCb6T8Jv-1">
          <mxGeometry x="360" y="290" width="120" height="60" as="geometry" />
        </mxCell>
        <mxCell id="P0hghUWbtCA9-1cL2b6A-2" style="edgeStyle=orthogonalEdgeStyle;rounded=0;orthogonalLoop=1;jettySize=auto;html=1;exitX=1;exitY=0.5;exitDx=0;exitDy=0;entryX=0;entryY=0.5;entryDx=0;entryDy=0;entryPerimeter=0;" edge="1" parent="Le4JkzimExHZiCb6T8Jv-1" source="P0hghUWbtCA9-1cL2b6A-1" target="P0hghUWbtCA9-1cL2b6A-0">
          <mxGeometry relative="1" as="geometry" />
        </mxCell>
        <mxCell id="P0hghUWbtCA9-1cL2b6A-3" value="MongoDB - Shard 1" style="shape=cylinder3;whiteSpace=wrap;html=1;boundedLbl=1;backgroundOutline=1;size=15;fillColor=#60a917;fontColor=#ffffff;strokeColor=#2D7600;" vertex="1" parent="Le4JkzimExHZiCb6T8Jv-1">
          <mxGeometry x="680" y="230" width="60" height="80" as="geometry" />
        </mxCell>
        <mxCell id="P0hghUWbtCA9-1cL2b6A-4" value="MongoDB - Shard 2" style="shape=cylinder3;whiteSpace=wrap;html=1;boundedLbl=1;backgroundOutline=1;size=15;fillColor=#60a917;fontColor=#ffffff;strokeColor=#2D7600;" vertex="1" parent="Le4JkzimExHZiCb6T8Jv-1">
          <mxGeometry x="680" y="340" width="60" height="80" as="geometry" />
        </mxCell>
        <mxCell id="P0hghUWbtCA9-1cL2b6A-5" value="Mongo ConfigSrv" style="shape=cylinder3;whiteSpace=wrap;html=1;boundedLbl=1;backgroundOutline=1;size=15;fillColor=#fad7ac;strokeColor=#b46504;" vertex="1" parent="Le4JkzimExHZiCb6T8Jv-1">
          <mxGeometry x="560" y="430" width="60" height="80" as="geometry" />
        </mxCell>
        <mxCell id="P0hghUWbtCA9-1cL2b6A-6" style="edgeStyle=orthogonalEdgeStyle;rounded=0;orthogonalLoop=1;jettySize=auto;html=1;entryX=0;entryY=0.5;entryDx=0;entryDy=0;entryPerimeter=0;" edge="1" parent="Le4JkzimExHZiCb6T8Jv-1" source="P0hghUWbtCA9-1cL2b6A-0" target="P0hghUWbtCA9-1cL2b6A-3">
          <mxGeometry relative="1" as="geometry" />
        </mxCell>
        <mxCell id="P0hghUWbtCA9-1cL2b6A-7" style="edgeStyle=orthogonalEdgeStyle;rounded=0;orthogonalLoop=1;jettySize=auto;html=1;entryX=0;entryY=0.5;entryDx=0;entryDy=0;entryPerimeter=0;" edge="1" parent="Le4JkzimExHZiCb6T8Jv-1" source="P0hghUWbtCA9-1cL2b6A-0" target="P0hghUWbtCA9-1cL2b6A-4">
          <mxGeometry relative="1" as="geometry" />
        </mxCell>
        <mxCell id="P0hghUWbtCA9-1cL2b6A-8" style="edgeStyle=orthogonalEdgeStyle;rounded=0;orthogonalLoop=1;jettySize=auto;html=1;entryX=0.5;entryY=0;entryDx=0;entryDy=0;entryPerimeter=0;" edge="1" parent="Le4JkzimExHZiCb6T8Jv-1" source="P0hghUWbtCA9-1cL2b6A-0" target="P0hghUWbtCA9-1cL2b6A-5">
          <mxGeometry relative="1" as="geometry" />
        </mxCell>
        <mxCell id="P0hghUWbtCA9-1cL2b6A-9" style="edgeStyle=orthogonalEdgeStyle;rounded=0;orthogonalLoop=1;jettySize=auto;html=1;entryX=1;entryY=0.5;entryDx=0;entryDy=0;entryPerimeter=0;" edge="1" parent="Le4JkzimExHZiCb6T8Jv-1" source="P0hghUWbtCA9-1cL2b6A-3" target="P0hghUWbtCA9-1cL2b6A-5">
          <mxGeometry relative="1" as="geometry">
            <Array as="points">
              <mxPoint x="810" y="270" />
              <mxPoint x="810" y="470" />
            </Array>
          </mxGeometry>
        </mxCell>
        <mxCell id="P0hghUWbtCA9-1cL2b6A-10" style="edgeStyle=orthogonalEdgeStyle;rounded=0;orthogonalLoop=1;jettySize=auto;html=1;entryX=1;entryY=0.5;entryDx=0;entryDy=0;entryPerimeter=0;" edge="1" parent="Le4JkzimExHZiCb6T8Jv-1" source="P0hghUWbtCA9-1cL2b6A-4" target="P0hghUWbtCA9-1cL2b6A-5">
          <mxGeometry relative="1" as="geometry">
            <Array as="points">
              <mxPoint x="770" y="380" />
              <mxPoint x="770" y="470" />
            </Array>
          </mxGeometry>
        </mxCell>
        <mxCell id="P0hghUWbtCA9-1cL2b6A-11" value="MongoDB - Shard 1&lt;div&gt;Repl 1&lt;/div&gt;" style="shape=cylinder3;whiteSpace=wrap;html=1;boundedLbl=1;backgroundOutline=1;size=15;fillColor=#d5e8d4;gradientColor=#97d077;strokeColor=#82b366;" vertex="1" parent="Le4JkzimExHZiCb6T8Jv-1">
          <mxGeometry x="870" y="-20" width="60" height="80" as="geometry" />
        </mxCell>
        <mxCell id="P0hghUWbtCA9-1cL2b6A-12" value="MongoDB - Shard 1&lt;div&gt;Repl 2&lt;/div&gt;" style="shape=cylinder3;whiteSpace=wrap;html=1;boundedLbl=1;backgroundOutline=1;size=15;fillColor=#d5e8d4;gradientColor=#97d077;strokeColor=#82b366;" vertex="1" parent="Le4JkzimExHZiCb6T8Jv-1">
          <mxGeometry x="870" y="80" width="60" height="80" as="geometry" />
        </mxCell>
        <mxCell id="P0hghUWbtCA9-1cL2b6A-13" value="MongoDB - Shard 1&lt;div&gt;Repl 3&lt;/div&gt;" style="shape=cylinder3;whiteSpace=wrap;html=1;boundedLbl=1;backgroundOutline=1;size=15;fillColor=#d5e8d4;gradientColor=#97d077;strokeColor=#82b366;" vertex="1" parent="Le4JkzimExHZiCb6T8Jv-1">
          <mxGeometry x="870" y="183.5" width="60" height="80" as="geometry" />
        </mxCell>
        <mxCell id="P0hghUWbtCA9-1cL2b6A-14" value="MongoDB - Shard 2&lt;div&gt;Repl 1&lt;/div&gt;" style="shape=cylinder3;whiteSpace=wrap;html=1;boundedLbl=1;backgroundOutline=1;size=15;fillColor=#cdeb8b;strokeColor=#36393d;" vertex="1" parent="Le4JkzimExHZiCb6T8Jv-1">
          <mxGeometry x="870" y="380" width="60" height="80" as="geometry" />
        </mxCell>
        <mxCell id="P0hghUWbtCA9-1cL2b6A-15" value="MongoDB - Shard 2&lt;div&gt;Repl 2&lt;/div&gt;" style="shape=cylinder3;whiteSpace=wrap;html=1;boundedLbl=1;backgroundOutline=1;size=15;fillColor=#cdeb8b;strokeColor=#36393d;" vertex="1" parent="Le4JkzimExHZiCb6T8Jv-1">
          <mxGeometry x="870" y="480" width="60" height="80" as="geometry" />
        </mxCell>
        <mxCell id="P0hghUWbtCA9-1cL2b6A-16" value="MongoDB - Shard 2&lt;div&gt;Repl 3&lt;/div&gt;" style="shape=cylinder3;whiteSpace=wrap;html=1;boundedLbl=1;backgroundOutline=1;size=15;fillColor=#cdeb8b;strokeColor=#36393d;" vertex="1" parent="Le4JkzimExHZiCb6T8Jv-1">
          <mxGeometry x="870" y="583.5" width="60" height="80" as="geometry" />
        </mxCell>
        <mxCell id="P0hghUWbtCA9-1cL2b6A-17" style="edgeStyle=orthogonalEdgeStyle;rounded=0;orthogonalLoop=1;jettySize=auto;html=1;entryX=0;entryY=0.5;entryDx=0;entryDy=0;entryPerimeter=0;" edge="1" parent="Le4JkzimExHZiCb6T8Jv-1" source="P0hghUWbtCA9-1cL2b6A-4" target="P0hghUWbtCA9-1cL2b6A-14">
          <mxGeometry relative="1" as="geometry">
            <Array as="points">
              <mxPoint x="710" y="500" />
              <mxPoint x="840" y="500" />
              <mxPoint x="840" y="420" />
            </Array>
          </mxGeometry>
        </mxCell>
        <mxCell id="P0hghUWbtCA9-1cL2b6A-18" style="edgeStyle=orthogonalEdgeStyle;rounded=0;orthogonalLoop=1;jettySize=auto;html=1;entryX=0;entryY=0.5;entryDx=0;entryDy=0;entryPerimeter=0;" edge="1" parent="Le4JkzimExHZiCb6T8Jv-1" source="P0hghUWbtCA9-1cL2b6A-4" target="P0hghUWbtCA9-1cL2b6A-15">
          <mxGeometry relative="1" as="geometry">
            <Array as="points">
              <mxPoint x="710" y="520" />
            </Array>
          </mxGeometry>
        </mxCell>
        <mxCell id="P0hghUWbtCA9-1cL2b6A-19" style="edgeStyle=orthogonalEdgeStyle;rounded=0;orthogonalLoop=1;jettySize=auto;html=1;entryX=0;entryY=0.5;entryDx=0;entryDy=0;entryPerimeter=0;" edge="1" parent="Le4JkzimExHZiCb6T8Jv-1" source="P0hghUWbtCA9-1cL2b6A-4" target="P0hghUWbtCA9-1cL2b6A-16">
          <mxGeometry relative="1" as="geometry">
            <Array as="points">
              <mxPoint x="710" y="624" />
              <mxPoint x="805" y="624" />
            </Array>
          </mxGeometry>
        </mxCell>
        <mxCell id="P0hghUWbtCA9-1cL2b6A-20" style="edgeStyle=orthogonalEdgeStyle;rounded=0;orthogonalLoop=1;jettySize=auto;html=1;entryX=0;entryY=0.5;entryDx=0;entryDy=0;entryPerimeter=0;" edge="1" parent="Le4JkzimExHZiCb6T8Jv-1" source="P0hghUWbtCA9-1cL2b6A-3" target="P0hghUWbtCA9-1cL2b6A-11">
          <mxGeometry relative="1" as="geometry">
            <Array as="points">
              <mxPoint x="710" y="20" />
            </Array>
          </mxGeometry>
        </mxCell>
        <mxCell id="P0hghUWbtCA9-1cL2b6A-21" style="edgeStyle=orthogonalEdgeStyle;rounded=0;orthogonalLoop=1;jettySize=auto;html=1;entryX=0;entryY=0.5;entryDx=0;entryDy=0;entryPerimeter=0;" edge="1" parent="Le4JkzimExHZiCb6T8Jv-1" source="P0hghUWbtCA9-1cL2b6A-3" target="P0hghUWbtCA9-1cL2b6A-12">
          <mxGeometry relative="1" as="geometry">
            <Array as="points">
              <mxPoint x="710" y="120" />
            </Array>
          </mxGeometry>
        </mxCell>
        <mxCell id="P0hghUWbtCA9-1cL2b6A-22" style="edgeStyle=orthogonalEdgeStyle;rounded=0;orthogonalLoop=1;jettySize=auto;html=1;entryX=0;entryY=0.431;entryDx=0;entryDy=0;entryPerimeter=0;" edge="1" parent="Le4JkzimExHZiCb6T8Jv-1" source="P0hghUWbtCA9-1cL2b6A-3" target="P0hghUWbtCA9-1cL2b6A-13">
          <mxGeometry relative="1" as="geometry">
            <Array as="points">
              <mxPoint x="710" y="218" />
            </Array>
          </mxGeometry>
        </mxCell>
      </root>
    </mxGraphModel>
  </diagram>
  <diagram name="Шаг 4" id="hE4GZ5KL_yv2WsMliPwn">
    <mxGraphModel dx="5266" dy="3638" grid="1" gridSize="10" guides="1" tooltips="1" connect="1" arrows="1" fold="1" page="1" pageScale="1" pageWidth="1169" pageHeight="827" math="0" shadow="0">
      <root>
        <mxCell id="dYShhz-14ZxL1txFZbg_-0" />
        <mxCell id="dYShhz-14ZxL1txFZbg_-1" parent="dYShhz-14ZxL1txFZbg_-0" />
        <mxCell id="7gG6qsOkRGqgKRTDLMKX-0" value="APISIX Gateway" style="rounded=1;whiteSpace=wrap;html=1;fillColor=#ffcd28;strokeColor=#d79b00;gradientColor=#ffa500;" vertex="1" parent="dYShhz-14ZxL1txFZbg_-1">
          <mxGeometry x="-460" y="560" width="360" height="210" as="geometry" />
        </mxCell>
        <mxCell id="7gG6qsOkRGqgKRTDLMKX-3" value="" style="group" vertex="1" connectable="0" parent="dYShhz-14ZxL1txFZbg_-1">
          <mxGeometry x="340" y="-30" width="630" height="710" as="geometry" />
        </mxCell>
        <mxCell id="7gG6qsOkRGqgKRTDLMKX-1" value="" style="rounded=0;whiteSpace=wrap;html=1;fillColor=#eeeeee;strokeColor=#36393d;" vertex="1" parent="7gG6qsOkRGqgKRTDLMKX-3">
          <mxGeometry width="630" height="710" as="geometry" />
        </mxCell>
        <mxCell id="dYShhz-14ZxL1txFZbg_-2" value="Redis&lt;div&gt;Cache&lt;/div&gt;" style="shape=cylinder3;whiteSpace=wrap;html=1;boundedLbl=1;backgroundOutline=1;size=15;fillColor=#fad9d5;strokeColor=#ae4132;" vertex="1" parent="7gG6qsOkRGqgKRTDLMKX-3">
          <mxGeometry x="150" y="170" width="60" height="80" as="geometry" />
        </mxCell>
        <mxCell id="dYShhz-14ZxL1txFZbg_-3" style="edgeStyle=orthogonalEdgeStyle;rounded=0;orthogonalLoop=1;jettySize=auto;html=1;entryX=0;entryY=0;entryDx=0;entryDy=52.5;entryPerimeter=0;" edge="1" parent="7gG6qsOkRGqgKRTDLMKX-3" target="dYShhz-14ZxL1txFZbg_-2">
          <mxGeometry relative="1" as="geometry">
            <Array as="points">
              <mxPoint x="80" y="223" />
            </Array>
            <mxPoint x="80" y="320" as="sourcePoint" />
          </mxGeometry>
        </mxCell>
        <mxCell id="dYShhz-14ZxL1txFZbg_-4" value="Mongos Router" style="shape=cylinder3;whiteSpace=wrap;html=1;boundedLbl=1;backgroundOutline=1;size=15;fillColor=#b0e3e6;strokeColor=#0e8088;" vertex="1" parent="7gG6qsOkRGqgKRTDLMKX-3">
          <mxGeometry x="220" y="310" width="60" height="80" as="geometry" />
        </mxCell>
        <mxCell id="dYShhz-14ZxL1txFZbg_-5" value="pymongo-api" style="rounded=1;whiteSpace=wrap;html=1;fillColor=#1ba1e2;fontColor=#ffffff;strokeColor=#006EAF;" vertex="1" parent="7gG6qsOkRGqgKRTDLMKX-3">
          <mxGeometry x="20" y="320" width="120" height="60" as="geometry" />
        </mxCell>
        <mxCell id="dYShhz-14ZxL1txFZbg_-6" style="edgeStyle=orthogonalEdgeStyle;rounded=0;orthogonalLoop=1;jettySize=auto;html=1;exitX=1;exitY=0.5;exitDx=0;exitDy=0;entryX=0;entryY=0.5;entryDx=0;entryDy=0;entryPerimeter=0;" edge="1" parent="7gG6qsOkRGqgKRTDLMKX-3" source="dYShhz-14ZxL1txFZbg_-5" target="dYShhz-14ZxL1txFZbg_-4">
          <mxGeometry relative="1" as="geometry" />
        </mxCell>
        <mxCell id="dYShhz-14ZxL1txFZbg_-7" value="MongoDB - Shard 1" style="shape=cylinder3;whiteSpace=wrap;html=1;boundedLbl=1;backgroundOutline=1;size=15;fillColor=#60a917;fontColor=#ffffff;strokeColor=#2D7600;" vertex="1" parent="7gG6qsOkRGqgKRTDLMKX-3">
          <mxGeometry x="340" y="260" width="60" height="80" as="geometry" />
        </mxCell>
        <mxCell id="dYShhz-14ZxL1txFZbg_-8" value="MongoDB - Shard 2" style="shape=cylinder3;whiteSpace=wrap;html=1;boundedLbl=1;backgroundOutline=1;size=15;fillColor=#60a917;fontColor=#ffffff;strokeColor=#2D7600;" vertex="1" parent="7gG6qsOkRGqgKRTDLMKX-3">
          <mxGeometry x="340" y="370" width="60" height="80" as="geometry" />
        </mxCell>
        <mxCell id="dYShhz-14ZxL1txFZbg_-9" value="Mongo ConfigSrv" style="shape=cylinder3;whiteSpace=wrap;html=1;boundedLbl=1;backgroundOutline=1;size=15;fillColor=#fad7ac;strokeColor=#b46504;" vertex="1" parent="7gG6qsOkRGqgKRTDLMKX-3">
          <mxGeometry x="220" y="460" width="60" height="80" as="geometry" />
        </mxCell>
        <mxCell id="dYShhz-14ZxL1txFZbg_-10" style="edgeStyle=orthogonalEdgeStyle;rounded=0;orthogonalLoop=1;jettySize=auto;html=1;entryX=0;entryY=0.5;entryDx=0;entryDy=0;entryPerimeter=0;" edge="1" parent="7gG6qsOkRGqgKRTDLMKX-3" source="dYShhz-14ZxL1txFZbg_-4" target="dYShhz-14ZxL1txFZbg_-7">
          <mxGeometry relative="1" as="geometry" />
        </mxCell>
        <mxCell id="dYShhz-14ZxL1txFZbg_-11" style="edgeStyle=orthogonalEdgeStyle;rounded=0;orthogonalLoop=1;jettySize=auto;html=1;entryX=0;entryY=0.5;entryDx=0;entryDy=0;entryPerimeter=0;" edge="1" parent="7gG6qsOkRGqgKRTDLMKX-3" source="dYShhz-14ZxL1txFZbg_-4" target="dYShhz-14ZxL1txFZbg_-8">
          <mxGeometry relative="1" as="geometry" />
        </mxCell>
        <mxCell id="dYShhz-14ZxL1txFZbg_-12" style="edgeStyle=orthogonalEdgeStyle;rounded=0;orthogonalLoop=1;jettySize=auto;html=1;entryX=0.5;entryY=0;entryDx=0;entryDy=0;entryPerimeter=0;" edge="1" parent="7gG6qsOkRGqgKRTDLMKX-3" source="dYShhz-14ZxL1txFZbg_-4" target="dYShhz-14ZxL1txFZbg_-9">
          <mxGeometry relative="1" as="geometry" />
        </mxCell>
        <mxCell id="dYShhz-14ZxL1txFZbg_-13" style="edgeStyle=orthogonalEdgeStyle;rounded=0;orthogonalLoop=1;jettySize=auto;html=1;entryX=1;entryY=0.5;entryDx=0;entryDy=0;entryPerimeter=0;" edge="1" parent="7gG6qsOkRGqgKRTDLMKX-3" source="dYShhz-14ZxL1txFZbg_-7" target="dYShhz-14ZxL1txFZbg_-9">
          <mxGeometry relative="1" as="geometry">
            <Array as="points">
              <mxPoint x="470" y="300" />
              <mxPoint x="470" y="500" />
            </Array>
          </mxGeometry>
        </mxCell>
        <mxCell id="dYShhz-14ZxL1txFZbg_-14" style="edgeStyle=orthogonalEdgeStyle;rounded=0;orthogonalLoop=1;jettySize=auto;html=1;entryX=1;entryY=0.5;entryDx=0;entryDy=0;entryPerimeter=0;" edge="1" parent="7gG6qsOkRGqgKRTDLMKX-3" source="dYShhz-14ZxL1txFZbg_-8" target="dYShhz-14ZxL1txFZbg_-9">
          <mxGeometry relative="1" as="geometry">
            <Array as="points">
              <mxPoint x="430" y="410" />
              <mxPoint x="430" y="500" />
            </Array>
          </mxGeometry>
        </mxCell>
        <mxCell id="dYShhz-14ZxL1txFZbg_-15" value="MongoDB - Shard 1&lt;div&gt;Repl 1&lt;/div&gt;" style="shape=cylinder3;whiteSpace=wrap;html=1;boundedLbl=1;backgroundOutline=1;size=15;fillColor=#d5e8d4;gradientColor=#97d077;strokeColor=#82b366;" vertex="1" parent="7gG6qsOkRGqgKRTDLMKX-3">
          <mxGeometry x="530" y="10" width="60" height="80" as="geometry" />
        </mxCell>
        <mxCell id="dYShhz-14ZxL1txFZbg_-16" value="MongoDB - Shard 1&lt;div&gt;Repl 2&lt;/div&gt;" style="shape=cylinder3;whiteSpace=wrap;html=1;boundedLbl=1;backgroundOutline=1;size=15;fillColor=#d5e8d4;gradientColor=#97d077;strokeColor=#82b366;" vertex="1" parent="7gG6qsOkRGqgKRTDLMKX-3">
          <mxGeometry x="530" y="110" width="60" height="80" as="geometry" />
        </mxCell>
        <mxCell id="dYShhz-14ZxL1txFZbg_-17" value="MongoDB - Shard 1&lt;div&gt;Repl 3&lt;/div&gt;" style="shape=cylinder3;whiteSpace=wrap;html=1;boundedLbl=1;backgroundOutline=1;size=15;fillColor=#d5e8d4;gradientColor=#97d077;strokeColor=#82b366;" vertex="1" parent="7gG6qsOkRGqgKRTDLMKX-3">
          <mxGeometry x="530" y="213.5" width="60" height="80" as="geometry" />
        </mxCell>
        <mxCell id="dYShhz-14ZxL1txFZbg_-18" value="MongoDB - Shard 2&lt;div&gt;Repl 1&lt;/div&gt;" style="shape=cylinder3;whiteSpace=wrap;html=1;boundedLbl=1;backgroundOutline=1;size=15;fillColor=#cdeb8b;strokeColor=#36393d;" vertex="1" parent="7gG6qsOkRGqgKRTDLMKX-3">
          <mxGeometry x="530" y="410" width="60" height="80" as="geometry" />
        </mxCell>
        <mxCell id="dYShhz-14ZxL1txFZbg_-19" value="MongoDB - Shard 2&lt;div&gt;Repl 2&lt;/div&gt;" style="shape=cylinder3;whiteSpace=wrap;html=1;boundedLbl=1;backgroundOutline=1;size=15;fillColor=#cdeb8b;strokeColor=#36393d;" vertex="1" parent="7gG6qsOkRGqgKRTDLMKX-3">
          <mxGeometry x="530" y="510" width="60" height="80" as="geometry" />
        </mxCell>
        <mxCell id="dYShhz-14ZxL1txFZbg_-20" value="MongoDB - Shard 2&lt;div&gt;Repl 3&lt;/div&gt;" style="shape=cylinder3;whiteSpace=wrap;html=1;boundedLbl=1;backgroundOutline=1;size=15;fillColor=#cdeb8b;strokeColor=#36393d;" vertex="1" parent="7gG6qsOkRGqgKRTDLMKX-3">
          <mxGeometry x="530" y="613.5" width="60" height="80" as="geometry" />
        </mxCell>
        <mxCell id="dYShhz-14ZxL1txFZbg_-21" style="edgeStyle=orthogonalEdgeStyle;rounded=0;orthogonalLoop=1;jettySize=auto;html=1;entryX=0;entryY=0.5;entryDx=0;entryDy=0;entryPerimeter=0;" edge="1" parent="7gG6qsOkRGqgKRTDLMKX-3" source="dYShhz-14ZxL1txFZbg_-8" target="dYShhz-14ZxL1txFZbg_-18">
          <mxGeometry relative="1" as="geometry">
            <Array as="points">
              <mxPoint x="370" y="530" />
              <mxPoint x="500" y="530" />
              <mxPoint x="500" y="450" />
            </Array>
          </mxGeometry>
        </mxCell>
        <mxCell id="dYShhz-14ZxL1txFZbg_-22" style="edgeStyle=orthogonalEdgeStyle;rounded=0;orthogonalLoop=1;jettySize=auto;html=1;entryX=0;entryY=0.5;entryDx=0;entryDy=0;entryPerimeter=0;" edge="1" parent="7gG6qsOkRGqgKRTDLMKX-3" source="dYShhz-14ZxL1txFZbg_-8" target="dYShhz-14ZxL1txFZbg_-19">
          <mxGeometry relative="1" as="geometry">
            <Array as="points">
              <mxPoint x="370" y="550" />
            </Array>
          </mxGeometry>
        </mxCell>
        <mxCell id="dYShhz-14ZxL1txFZbg_-23" style="edgeStyle=orthogonalEdgeStyle;rounded=0;orthogonalLoop=1;jettySize=auto;html=1;entryX=0;entryY=0.5;entryDx=0;entryDy=0;entryPerimeter=0;" edge="1" parent="7gG6qsOkRGqgKRTDLMKX-3" source="dYShhz-14ZxL1txFZbg_-8" target="dYShhz-14ZxL1txFZbg_-20">
          <mxGeometry relative="1" as="geometry">
            <Array as="points">
              <mxPoint x="370" y="654" />
              <mxPoint x="465" y="654" />
            </Array>
          </mxGeometry>
        </mxCell>
        <mxCell id="dYShhz-14ZxL1txFZbg_-24" style="edgeStyle=orthogonalEdgeStyle;rounded=0;orthogonalLoop=1;jettySize=auto;html=1;entryX=0;entryY=0.5;entryDx=0;entryDy=0;entryPerimeter=0;" edge="1" parent="7gG6qsOkRGqgKRTDLMKX-3" source="dYShhz-14ZxL1txFZbg_-7" target="dYShhz-14ZxL1txFZbg_-15">
          <mxGeometry relative="1" as="geometry">
            <Array as="points">
              <mxPoint x="370" y="50" />
            </Array>
          </mxGeometry>
        </mxCell>
        <mxCell id="dYShhz-14ZxL1txFZbg_-25" style="edgeStyle=orthogonalEdgeStyle;rounded=0;orthogonalLoop=1;jettySize=auto;html=1;entryX=0;entryY=0.5;entryDx=0;entryDy=0;entryPerimeter=0;" edge="1" parent="7gG6qsOkRGqgKRTDLMKX-3" source="dYShhz-14ZxL1txFZbg_-7" target="dYShhz-14ZxL1txFZbg_-16">
          <mxGeometry relative="1" as="geometry">
            <Array as="points">
              <mxPoint x="370" y="150" />
            </Array>
          </mxGeometry>
        </mxCell>
        <mxCell id="dYShhz-14ZxL1txFZbg_-26" style="edgeStyle=orthogonalEdgeStyle;rounded=0;orthogonalLoop=1;jettySize=auto;html=1;entryX=0;entryY=0.431;entryDx=0;entryDy=0;entryPerimeter=0;" edge="1" parent="7gG6qsOkRGqgKRTDLMKX-3" source="dYShhz-14ZxL1txFZbg_-7" target="dYShhz-14ZxL1txFZbg_-17">
          <mxGeometry relative="1" as="geometry">
            <Array as="points">
              <mxPoint x="370" y="248" />
            </Array>
          </mxGeometry>
        </mxCell>
        <mxCell id="7gG6qsOkRGqgKRTDLMKX-2" value="App Instance 1" style="text;html=1;align=center;verticalAlign=middle;whiteSpace=wrap;rounded=0;" vertex="1" parent="7gG6qsOkRGqgKRTDLMKX-3">
          <mxGeometry x="10" y="10" width="60" height="30" as="geometry" />
        </mxCell>
        <mxCell id="7gG6qsOkRGqgKRTDLMKX-4" value="" style="group" vertex="1" connectable="0" parent="dYShhz-14ZxL1txFZbg_-1">
          <mxGeometry x="340" y="710" width="630" height="710" as="geometry" />
        </mxCell>
        <mxCell id="7gG6qsOkRGqgKRTDLMKX-66" style="edgeStyle=orthogonalEdgeStyle;rounded=0;orthogonalLoop=1;jettySize=auto;html=1;" edge="1" parent="7gG6qsOkRGqgKRTDLMKX-4" source="7gG6qsOkRGqgKRTDLMKX-5">
          <mxGeometry relative="1" as="geometry">
            <mxPoint x="-460" y="290" as="targetPoint" />
            <Array as="points">
              <mxPoint x="-229" y="690" />
              <mxPoint x="-229" y="291" />
            </Array>
          </mxGeometry>
        </mxCell>
        <mxCell id="7gG6qsOkRGqgKRTDLMKX-67" value="Регистрация" style="edgeLabel;html=1;align=center;verticalAlign=middle;resizable=0;points=[];" vertex="1" connectable="0" parent="7gG6qsOkRGqgKRTDLMKX-66">
          <mxGeometry x="-0.0012" y="1" relative="1" as="geometry">
            <mxPoint as="offset" />
          </mxGeometry>
        </mxCell>
        <mxCell id="7gG6qsOkRGqgKRTDLMKX-5" value="" style="rounded=0;whiteSpace=wrap;html=1;fillColor=#eeeeee;strokeColor=#36393d;" vertex="1" parent="7gG6qsOkRGqgKRTDLMKX-4">
          <mxGeometry width="630" height="710" as="geometry" />
        </mxCell>
        <mxCell id="7gG6qsOkRGqgKRTDLMKX-6" value="Redis&lt;div&gt;Cache&lt;/div&gt;" style="shape=cylinder3;whiteSpace=wrap;html=1;boundedLbl=1;backgroundOutline=1;size=15;fillColor=#fad9d5;strokeColor=#ae4132;" vertex="1" parent="7gG6qsOkRGqgKRTDLMKX-4">
          <mxGeometry x="150" y="170" width="60" height="80" as="geometry" />
        </mxCell>
        <mxCell id="7gG6qsOkRGqgKRTDLMKX-7" style="edgeStyle=orthogonalEdgeStyle;rounded=0;orthogonalLoop=1;jettySize=auto;html=1;entryX=0;entryY=0;entryDx=0;entryDy=52.5;entryPerimeter=0;" edge="1" parent="7gG6qsOkRGqgKRTDLMKX-4" target="7gG6qsOkRGqgKRTDLMKX-6">
          <mxGeometry relative="1" as="geometry">
            <Array as="points">
              <mxPoint x="80" y="223" />
            </Array>
            <mxPoint x="80" y="320" as="sourcePoint" />
          </mxGeometry>
        </mxCell>
        <mxCell id="7gG6qsOkRGqgKRTDLMKX-8" value="Mongos Router" style="shape=cylinder3;whiteSpace=wrap;html=1;boundedLbl=1;backgroundOutline=1;size=15;fillColor=#b0e3e6;strokeColor=#0e8088;" vertex="1" parent="7gG6qsOkRGqgKRTDLMKX-4">
          <mxGeometry x="220" y="310" width="60" height="80" as="geometry" />
        </mxCell>
        <mxCell id="7gG6qsOkRGqgKRTDLMKX-9" value="pymongo-api" style="rounded=1;whiteSpace=wrap;html=1;fillColor=#1ba1e2;fontColor=#ffffff;strokeColor=#006EAF;" vertex="1" parent="7gG6qsOkRGqgKRTDLMKX-4">
          <mxGeometry x="20" y="320" width="120" height="60" as="geometry" />
        </mxCell>
        <mxCell id="7gG6qsOkRGqgKRTDLMKX-10" style="edgeStyle=orthogonalEdgeStyle;rounded=0;orthogonalLoop=1;jettySize=auto;html=1;exitX=1;exitY=0.5;exitDx=0;exitDy=0;entryX=0;entryY=0.5;entryDx=0;entryDy=0;entryPerimeter=0;" edge="1" parent="7gG6qsOkRGqgKRTDLMKX-4" source="7gG6qsOkRGqgKRTDLMKX-9" target="7gG6qsOkRGqgKRTDLMKX-8">
          <mxGeometry relative="1" as="geometry" />
        </mxCell>
        <mxCell id="7gG6qsOkRGqgKRTDLMKX-11" value="MongoDB - Shard 1" style="shape=cylinder3;whiteSpace=wrap;html=1;boundedLbl=1;backgroundOutline=1;size=15;fillColor=#60a917;fontColor=#ffffff;strokeColor=#2D7600;" vertex="1" parent="7gG6qsOkRGqgKRTDLMKX-4">
          <mxGeometry x="340" y="260" width="60" height="80" as="geometry" />
        </mxCell>
        <mxCell id="7gG6qsOkRGqgKRTDLMKX-12" value="MongoDB - Shard 2" style="shape=cylinder3;whiteSpace=wrap;html=1;boundedLbl=1;backgroundOutline=1;size=15;fillColor=#60a917;fontColor=#ffffff;strokeColor=#2D7600;" vertex="1" parent="7gG6qsOkRGqgKRTDLMKX-4">
          <mxGeometry x="340" y="370" width="60" height="80" as="geometry" />
        </mxCell>
        <mxCell id="7gG6qsOkRGqgKRTDLMKX-13" value="Mongo ConfigSrv" style="shape=cylinder3;whiteSpace=wrap;html=1;boundedLbl=1;backgroundOutline=1;size=15;fillColor=#fad7ac;strokeColor=#b46504;" vertex="1" parent="7gG6qsOkRGqgKRTDLMKX-4">
          <mxGeometry x="220" y="460" width="60" height="80" as="geometry" />
        </mxCell>
        <mxCell id="7gG6qsOkRGqgKRTDLMKX-14" style="edgeStyle=orthogonalEdgeStyle;rounded=0;orthogonalLoop=1;jettySize=auto;html=1;entryX=0;entryY=0.5;entryDx=0;entryDy=0;entryPerimeter=0;" edge="1" parent="7gG6qsOkRGqgKRTDLMKX-4" source="7gG6qsOkRGqgKRTDLMKX-8" target="7gG6qsOkRGqgKRTDLMKX-11">
          <mxGeometry relative="1" as="geometry" />
        </mxCell>
        <mxCell id="7gG6qsOkRGqgKRTDLMKX-15" style="edgeStyle=orthogonalEdgeStyle;rounded=0;orthogonalLoop=1;jettySize=auto;html=1;entryX=0;entryY=0.5;entryDx=0;entryDy=0;entryPerimeter=0;" edge="1" parent="7gG6qsOkRGqgKRTDLMKX-4" source="7gG6qsOkRGqgKRTDLMKX-8" target="7gG6qsOkRGqgKRTDLMKX-12">
          <mxGeometry relative="1" as="geometry" />
        </mxCell>
        <mxCell id="7gG6qsOkRGqgKRTDLMKX-16" style="edgeStyle=orthogonalEdgeStyle;rounded=0;orthogonalLoop=1;jettySize=auto;html=1;entryX=0.5;entryY=0;entryDx=0;entryDy=0;entryPerimeter=0;" edge="1" parent="7gG6qsOkRGqgKRTDLMKX-4" source="7gG6qsOkRGqgKRTDLMKX-8" target="7gG6qsOkRGqgKRTDLMKX-13">
          <mxGeometry relative="1" as="geometry" />
        </mxCell>
        <mxCell id="7gG6qsOkRGqgKRTDLMKX-17" style="edgeStyle=orthogonalEdgeStyle;rounded=0;orthogonalLoop=1;jettySize=auto;html=1;entryX=1;entryY=0.5;entryDx=0;entryDy=0;entryPerimeter=0;" edge="1" parent="7gG6qsOkRGqgKRTDLMKX-4" source="7gG6qsOkRGqgKRTDLMKX-11" target="7gG6qsOkRGqgKRTDLMKX-13">
          <mxGeometry relative="1" as="geometry">
            <Array as="points">
              <mxPoint x="470" y="300" />
              <mxPoint x="470" y="500" />
            </Array>
          </mxGeometry>
        </mxCell>
        <mxCell id="7gG6qsOkRGqgKRTDLMKX-18" style="edgeStyle=orthogonalEdgeStyle;rounded=0;orthogonalLoop=1;jettySize=auto;html=1;entryX=1;entryY=0.5;entryDx=0;entryDy=0;entryPerimeter=0;" edge="1" parent="7gG6qsOkRGqgKRTDLMKX-4" source="7gG6qsOkRGqgKRTDLMKX-12" target="7gG6qsOkRGqgKRTDLMKX-13">
          <mxGeometry relative="1" as="geometry">
            <Array as="points">
              <mxPoint x="430" y="410" />
              <mxPoint x="430" y="500" />
            </Array>
          </mxGeometry>
        </mxCell>
        <mxCell id="7gG6qsOkRGqgKRTDLMKX-19" value="MongoDB - Shard 1&lt;div&gt;Repl 1&lt;/div&gt;" style="shape=cylinder3;whiteSpace=wrap;html=1;boundedLbl=1;backgroundOutline=1;size=15;fillColor=#d5e8d4;gradientColor=#97d077;strokeColor=#82b366;" vertex="1" parent="7gG6qsOkRGqgKRTDLMKX-4">
          <mxGeometry x="530" y="10" width="60" height="80" as="geometry" />
        </mxCell>
        <mxCell id="7gG6qsOkRGqgKRTDLMKX-20" value="MongoDB - Shard 1&lt;div&gt;Repl 2&lt;/div&gt;" style="shape=cylinder3;whiteSpace=wrap;html=1;boundedLbl=1;backgroundOutline=1;size=15;fillColor=#d5e8d4;gradientColor=#97d077;strokeColor=#82b366;" vertex="1" parent="7gG6qsOkRGqgKRTDLMKX-4">
          <mxGeometry x="530" y="110" width="60" height="80" as="geometry" />
        </mxCell>
        <mxCell id="7gG6qsOkRGqgKRTDLMKX-21" value="MongoDB - Shard 1&lt;div&gt;Repl 3&lt;/div&gt;" style="shape=cylinder3;whiteSpace=wrap;html=1;boundedLbl=1;backgroundOutline=1;size=15;fillColor=#d5e8d4;gradientColor=#97d077;strokeColor=#82b366;" vertex="1" parent="7gG6qsOkRGqgKRTDLMKX-4">
          <mxGeometry x="530" y="213.5" width="60" height="80" as="geometry" />
        </mxCell>
        <mxCell id="7gG6qsOkRGqgKRTDLMKX-22" value="MongoDB - Shard 2&lt;div&gt;Repl 1&lt;/div&gt;" style="shape=cylinder3;whiteSpace=wrap;html=1;boundedLbl=1;backgroundOutline=1;size=15;fillColor=#cdeb8b;strokeColor=#36393d;" vertex="1" parent="7gG6qsOkRGqgKRTDLMKX-4">
          <mxGeometry x="530" y="410" width="60" height="80" as="geometry" />
        </mxCell>
        <mxCell id="7gG6qsOkRGqgKRTDLMKX-23" value="MongoDB - Shard 2&lt;div&gt;Repl 2&lt;/div&gt;" style="shape=cylinder3;whiteSpace=wrap;html=1;boundedLbl=1;backgroundOutline=1;size=15;fillColor=#cdeb8b;strokeColor=#36393d;" vertex="1" parent="7gG6qsOkRGqgKRTDLMKX-4">
          <mxGeometry x="530" y="510" width="60" height="80" as="geometry" />
        </mxCell>
        <mxCell id="7gG6qsOkRGqgKRTDLMKX-24" value="MongoDB - Shard 2&lt;div&gt;Repl 3&lt;/div&gt;" style="shape=cylinder3;whiteSpace=wrap;html=1;boundedLbl=1;backgroundOutline=1;size=15;fillColor=#cdeb8b;strokeColor=#36393d;" vertex="1" parent="7gG6qsOkRGqgKRTDLMKX-4">
          <mxGeometry x="530" y="613.5" width="60" height="80" as="geometry" />
        </mxCell>
        <mxCell id="7gG6qsOkRGqgKRTDLMKX-25" style="edgeStyle=orthogonalEdgeStyle;rounded=0;orthogonalLoop=1;jettySize=auto;html=1;entryX=0;entryY=0.5;entryDx=0;entryDy=0;entryPerimeter=0;" edge="1" parent="7gG6qsOkRGqgKRTDLMKX-4" source="7gG6qsOkRGqgKRTDLMKX-12" target="7gG6qsOkRGqgKRTDLMKX-22">
          <mxGeometry relative="1" as="geometry">
            <Array as="points">
              <mxPoint x="370" y="530" />
              <mxPoint x="500" y="530" />
              <mxPoint x="500" y="450" />
            </Array>
          </mxGeometry>
        </mxCell>
        <mxCell id="7gG6qsOkRGqgKRTDLMKX-26" style="edgeStyle=orthogonalEdgeStyle;rounded=0;orthogonalLoop=1;jettySize=auto;html=1;entryX=0;entryY=0.5;entryDx=0;entryDy=0;entryPerimeter=0;" edge="1" parent="7gG6qsOkRGqgKRTDLMKX-4" source="7gG6qsOkRGqgKRTDLMKX-12" target="7gG6qsOkRGqgKRTDLMKX-23">
          <mxGeometry relative="1" as="geometry">
            <Array as="points">
              <mxPoint x="370" y="550" />
            </Array>
          </mxGeometry>
        </mxCell>
        <mxCell id="7gG6qsOkRGqgKRTDLMKX-27" style="edgeStyle=orthogonalEdgeStyle;rounded=0;orthogonalLoop=1;jettySize=auto;html=1;entryX=0;entryY=0.5;entryDx=0;entryDy=0;entryPerimeter=0;" edge="1" parent="7gG6qsOkRGqgKRTDLMKX-4" source="7gG6qsOkRGqgKRTDLMKX-12" target="7gG6qsOkRGqgKRTDLMKX-24">
          <mxGeometry relative="1" as="geometry">
            <Array as="points">
              <mxPoint x="370" y="654" />
              <mxPoint x="465" y="654" />
            </Array>
          </mxGeometry>
        </mxCell>
        <mxCell id="7gG6qsOkRGqgKRTDLMKX-28" style="edgeStyle=orthogonalEdgeStyle;rounded=0;orthogonalLoop=1;jettySize=auto;html=1;entryX=0;entryY=0.5;entryDx=0;entryDy=0;entryPerimeter=0;" edge="1" parent="7gG6qsOkRGqgKRTDLMKX-4" source="7gG6qsOkRGqgKRTDLMKX-11" target="7gG6qsOkRGqgKRTDLMKX-19">
          <mxGeometry relative="1" as="geometry">
            <Array as="points">
              <mxPoint x="370" y="50" />
            </Array>
          </mxGeometry>
        </mxCell>
        <mxCell id="7gG6qsOkRGqgKRTDLMKX-29" style="edgeStyle=orthogonalEdgeStyle;rounded=0;orthogonalLoop=1;jettySize=auto;html=1;entryX=0;entryY=0.5;entryDx=0;entryDy=0;entryPerimeter=0;" edge="1" parent="7gG6qsOkRGqgKRTDLMKX-4" source="7gG6qsOkRGqgKRTDLMKX-11" target="7gG6qsOkRGqgKRTDLMKX-20">
          <mxGeometry relative="1" as="geometry">
            <Array as="points">
              <mxPoint x="370" y="150" />
            </Array>
          </mxGeometry>
        </mxCell>
        <mxCell id="7gG6qsOkRGqgKRTDLMKX-30" style="edgeStyle=orthogonalEdgeStyle;rounded=0;orthogonalLoop=1;jettySize=auto;html=1;entryX=0;entryY=0.431;entryDx=0;entryDy=0;entryPerimeter=0;" edge="1" parent="7gG6qsOkRGqgKRTDLMKX-4" source="7gG6qsOkRGqgKRTDLMKX-11" target="7gG6qsOkRGqgKRTDLMKX-21">
          <mxGeometry relative="1" as="geometry">
            <Array as="points">
              <mxPoint x="370" y="248" />
            </Array>
          </mxGeometry>
        </mxCell>
        <mxCell id="7gG6qsOkRGqgKRTDLMKX-31" value="App Instance 2" style="text;html=1;align=center;verticalAlign=middle;whiteSpace=wrap;rounded=0;" vertex="1" parent="7gG6qsOkRGqgKRTDLMKX-4">
          <mxGeometry x="10" y="10" width="60" height="30" as="geometry" />
        </mxCell>
        <mxCell id="7gG6qsOkRGqgKRTDLMKX-61" value="Consul" style="rounded=1;whiteSpace=wrap;html=1;fillColor=#fff2cc;strokeColor=#d6b656;" vertex="1" parent="dYShhz-14ZxL1txFZbg_-1">
          <mxGeometry x="-240" y="970" width="120" height="60" as="geometry" />
        </mxCell>
        <mxCell id="7gG6qsOkRGqgKRTDLMKX-63" style="edgeStyle=orthogonalEdgeStyle;rounded=0;orthogonalLoop=1;jettySize=auto;html=1;entryX=0.5;entryY=0;entryDx=0;entryDy=0;" edge="1" parent="dYShhz-14ZxL1txFZbg_-1" source="7gG6qsOkRGqgKRTDLMKX-62" target="7gG6qsOkRGqgKRTDLMKX-61">
          <mxGeometry relative="1" as="geometry" />
        </mxCell>
        <mxCell id="7gG6qsOkRGqgKRTDLMKX-64" value="Получить список сервисов" style="edgeLabel;html=1;align=center;verticalAlign=middle;resizable=0;points=[];" vertex="1" connectable="0" parent="7gG6qsOkRGqgKRTDLMKX-63">
          <mxGeometry x="-0.205" y="1" relative="1" as="geometry">
            <mxPoint as="offset" />
          </mxGeometry>
        </mxCell>
        <mxCell id="7gG6qsOkRGqgKRTDLMKX-62" value="consul_kv" style="rounded=1;whiteSpace=wrap;html=1;fillColor=#ffff88;strokeColor=#36393d;" vertex="1" parent="dYShhz-14ZxL1txFZbg_-1">
          <mxGeometry x="-240" y="710" width="120" height="60" as="geometry" />
        </mxCell>
        <mxCell id="7gG6qsOkRGqgKRTDLMKX-65" style="edgeStyle=orthogonalEdgeStyle;rounded=0;orthogonalLoop=1;jettySize=auto;html=1;entryX=1;entryY=0.5;entryDx=0;entryDy=0;" edge="1" parent="dYShhz-14ZxL1txFZbg_-1" source="7gG6qsOkRGqgKRTDLMKX-1" target="7gG6qsOkRGqgKRTDLMKX-61">
          <mxGeometry relative="1" as="geometry">
            <Array as="points">
              <mxPoint x="110" y="650" />
              <mxPoint x="110" y="1000" />
            </Array>
          </mxGeometry>
        </mxCell>
        <mxCell id="7gG6qsOkRGqgKRTDLMKX-68" value="Регистрация" style="edgeLabel;html=1;align=center;verticalAlign=middle;resizable=0;points=[];" vertex="1" connectable="0" parent="7gG6qsOkRGqgKRTDLMKX-65">
          <mxGeometry x="-0.2395" y="1" relative="1" as="geometry">
            <mxPoint as="offset" />
          </mxGeometry>
        </mxCell>
        <mxCell id="7gG6qsOkRGqgKRTDLMKX-70" style="edgeStyle=orthogonalEdgeStyle;rounded=0;orthogonalLoop=1;jettySize=auto;html=1;entryX=0;entryY=0.5;entryDx=0;entryDy=0;" edge="1" parent="dYShhz-14ZxL1txFZbg_-1" source="7gG6qsOkRGqgKRTDLMKX-0" target="dYShhz-14ZxL1txFZbg_-5">
          <mxGeometry relative="1" as="geometry">
            <Array as="points">
              <mxPoint y="665" />
              <mxPoint y="320" />
            </Array>
          </mxGeometry>
        </mxCell>
        <mxCell id="7gG6qsOkRGqgKRTDLMKX-72" value="Запросы к Instance 1" style="edgeLabel;html=1;align=center;verticalAlign=middle;resizable=0;points=[];" vertex="1" connectable="0" parent="7gG6qsOkRGqgKRTDLMKX-70">
          <mxGeometry x="0.4584" y="2" relative="1" as="geometry">
            <mxPoint x="-1" as="offset" />
          </mxGeometry>
        </mxCell>
        <mxCell id="7gG6qsOkRGqgKRTDLMKX-71" style="edgeStyle=orthogonalEdgeStyle;rounded=0;orthogonalLoop=1;jettySize=auto;html=1;entryX=0;entryY=0.5;entryDx=0;entryDy=0;" edge="1" parent="dYShhz-14ZxL1txFZbg_-1" source="7gG6qsOkRGqgKRTDLMKX-0" target="7gG6qsOkRGqgKRTDLMKX-9">
          <mxGeometry relative="1" as="geometry">
            <Array as="points">
              <mxPoint y="665" />
              <mxPoint y="1060" />
            </Array>
          </mxGeometry>
        </mxCell>
        <mxCell id="7gG6qsOkRGqgKRTDLMKX-73" value="Запросы к Instance 2" style="edgeLabel;html=1;align=center;verticalAlign=middle;resizable=0;points=[];" vertex="1" connectable="0" parent="7gG6qsOkRGqgKRTDLMKX-71">
          <mxGeometry x="0.576" y="1" relative="1" as="geometry">
            <mxPoint as="offset" />
          </mxGeometry>
        </mxCell>
      </root>
    </mxGraphModel>
  </diagram>
  <diagram name="Итог" id="AKTPsfj2bpAjGRHxfkTg">
    <mxGraphModel dx="7118" dy="4107" grid="1" gridSize="10" guides="1" tooltips="1" connect="1" arrows="1" fold="1" page="1" pageScale="1" pageWidth="1169" pageHeight="827" math="0" shadow="0">
      <root>
        <mxCell id="S1VS0w1-dyVBxJRP3deN-0" />
        <mxCell id="S1VS0w1-dyVBxJRP3deN-1" parent="S1VS0w1-dyVBxJRP3deN-0" />
        <mxCell id="yWs4MdgdHGeVQq2sNOlp-0" value="" style="rounded=0;whiteSpace=wrap;html=1;fillColor=#f5f5f5;strokeColor=#666666;gradientColor=#b3b3b3;" parent="S1VS0w1-dyVBxJRP3deN-1" vertex="1">
          <mxGeometry x="-914" y="-430" width="1530" height="1520" as="geometry" />
        </mxCell>
        <mxCell id="S1VS0w1-dyVBxJRP3deN-2" value="APISIX Gateway" style="rounded=1;whiteSpace=wrap;html=1;fillColor=#ffcd28;strokeColor=#d79b00;gradientColor=#ffa500;" parent="S1VS0w1-dyVBxJRP3deN-1" vertex="1">
          <mxGeometry x="-864" y="190" width="360" height="210" as="geometry" />
        </mxCell>
        <mxCell id="S1VS0w1-dyVBxJRP3deN-3" value="" style="group" parent="S1VS0w1-dyVBxJRP3deN-1" vertex="1" connectable="0">
          <mxGeometry x="-64" y="-400" width="630" height="710" as="geometry" />
        </mxCell>
        <mxCell id="S1VS0w1-dyVBxJRP3deN-4" value="" style="rounded=0;whiteSpace=wrap;html=1;fillColor=#eeeeee;strokeColor=#36393d;" parent="S1VS0w1-dyVBxJRP3deN-3" vertex="1">
          <mxGeometry width="630" height="710" as="geometry" />
        </mxCell>
        <mxCell id="S1VS0w1-dyVBxJRP3deN-5" value="Redis&lt;div&gt;Cache&lt;/div&gt;" style="shape=cylinder3;whiteSpace=wrap;html=1;boundedLbl=1;backgroundOutline=1;size=15;fillColor=#fad9d5;strokeColor=#ae4132;" parent="S1VS0w1-dyVBxJRP3deN-3" vertex="1">
          <mxGeometry x="150" y="170" width="60" height="80" as="geometry" />
        </mxCell>
        <mxCell id="S1VS0w1-dyVBxJRP3deN-6" style="edgeStyle=orthogonalEdgeStyle;rounded=0;orthogonalLoop=1;jettySize=auto;html=1;entryX=0;entryY=0;entryDx=0;entryDy=52.5;entryPerimeter=0;" parent="S1VS0w1-dyVBxJRP3deN-3" target="S1VS0w1-dyVBxJRP3deN-5" edge="1">
          <mxGeometry relative="1" as="geometry">
            <Array as="points">
              <mxPoint x="80" y="223" />
            </Array>
            <mxPoint x="80" y="320" as="sourcePoint" />
          </mxGeometry>
        </mxCell>
        <mxCell id="S1VS0w1-dyVBxJRP3deN-7" value="Mongos Router" style="shape=cylinder3;whiteSpace=wrap;html=1;boundedLbl=1;backgroundOutline=1;size=15;fillColor=#b0e3e6;strokeColor=#0e8088;" parent="S1VS0w1-dyVBxJRP3deN-3" vertex="1">
          <mxGeometry x="220" y="310" width="60" height="80" as="geometry" />
        </mxCell>
        <mxCell id="S1VS0w1-dyVBxJRP3deN-8" value="pymongo-api" style="rounded=1;whiteSpace=wrap;html=1;fillColor=#1ba1e2;fontColor=#ffffff;strokeColor=#006EAF;" parent="S1VS0w1-dyVBxJRP3deN-3" vertex="1">
          <mxGeometry x="20" y="320" width="120" height="60" as="geometry" />
        </mxCell>
        <mxCell id="S1VS0w1-dyVBxJRP3deN-9" style="edgeStyle=orthogonalEdgeStyle;rounded=0;orthogonalLoop=1;jettySize=auto;html=1;exitX=1;exitY=0.5;exitDx=0;exitDy=0;entryX=0;entryY=0.5;entryDx=0;entryDy=0;entryPerimeter=0;" parent="S1VS0w1-dyVBxJRP3deN-3" source="S1VS0w1-dyVBxJRP3deN-8" target="S1VS0w1-dyVBxJRP3deN-7" edge="1">
          <mxGeometry relative="1" as="geometry" />
        </mxCell>
        <mxCell id="S1VS0w1-dyVBxJRP3deN-10" value="MongoDB - Shard 1" style="shape=cylinder3;whiteSpace=wrap;html=1;boundedLbl=1;backgroundOutline=1;size=15;fillColor=#60a917;fontColor=#ffffff;strokeColor=#2D7600;" parent="S1VS0w1-dyVBxJRP3deN-3" vertex="1">
          <mxGeometry x="340" y="260" width="60" height="80" as="geometry" />
        </mxCell>
        <mxCell id="S1VS0w1-dyVBxJRP3deN-11" value="MongoDB - Shard 2" style="shape=cylinder3;whiteSpace=wrap;html=1;boundedLbl=1;backgroundOutline=1;size=15;fillColor=#60a917;fontColor=#ffffff;strokeColor=#2D7600;" parent="S1VS0w1-dyVBxJRP3deN-3" vertex="1">
          <mxGeometry x="340" y="370" width="60" height="80" as="geometry" />
        </mxCell>
        <mxCell id="S1VS0w1-dyVBxJRP3deN-12" value="Mongo ConfigSrv" style="shape=cylinder3;whiteSpace=wrap;html=1;boundedLbl=1;backgroundOutline=1;size=15;fillColor=#fad7ac;strokeColor=#b46504;" parent="S1VS0w1-dyVBxJRP3deN-3" vertex="1">
          <mxGeometry x="220" y="460" width="60" height="80" as="geometry" />
        </mxCell>
        <mxCell id="S1VS0w1-dyVBxJRP3deN-13" style="edgeStyle=orthogonalEdgeStyle;rounded=0;orthogonalLoop=1;jettySize=auto;html=1;entryX=0;entryY=0.5;entryDx=0;entryDy=0;entryPerimeter=0;" parent="S1VS0w1-dyVBxJRP3deN-3" source="S1VS0w1-dyVBxJRP3deN-7" target="S1VS0w1-dyVBxJRP3deN-10" edge="1">
          <mxGeometry relative="1" as="geometry" />
        </mxCell>
        <mxCell id="S1VS0w1-dyVBxJRP3deN-14" style="edgeStyle=orthogonalEdgeStyle;rounded=0;orthogonalLoop=1;jettySize=auto;html=1;entryX=0;entryY=0.5;entryDx=0;entryDy=0;entryPerimeter=0;" parent="S1VS0w1-dyVBxJRP3deN-3" source="S1VS0w1-dyVBxJRP3deN-7" target="S1VS0w1-dyVBxJRP3deN-11" edge="1">
          <mxGeometry relative="1" as="geometry" />
        </mxCell>
        <mxCell id="S1VS0w1-dyVBxJRP3deN-15" style="edgeStyle=orthogonalEdgeStyle;rounded=0;orthogonalLoop=1;jettySize=auto;html=1;entryX=0.5;entryY=0;entryDx=0;entryDy=0;entryPerimeter=0;" parent="S1VS0w1-dyVBxJRP3deN-3" source="S1VS0w1-dyVBxJRP3deN-7" target="S1VS0w1-dyVBxJRP3deN-12" edge="1">
          <mxGeometry relative="1" as="geometry" />
        </mxCell>
        <mxCell id="S1VS0w1-dyVBxJRP3deN-16" style="edgeStyle=orthogonalEdgeStyle;rounded=0;orthogonalLoop=1;jettySize=auto;html=1;entryX=1;entryY=0.5;entryDx=0;entryDy=0;entryPerimeter=0;" parent="S1VS0w1-dyVBxJRP3deN-3" source="S1VS0w1-dyVBxJRP3deN-10" target="S1VS0w1-dyVBxJRP3deN-12" edge="1">
          <mxGeometry relative="1" as="geometry">
            <Array as="points">
              <mxPoint x="470" y="300" />
              <mxPoint x="470" y="500" />
            </Array>
          </mxGeometry>
        </mxCell>
        <mxCell id="S1VS0w1-dyVBxJRP3deN-17" style="edgeStyle=orthogonalEdgeStyle;rounded=0;orthogonalLoop=1;jettySize=auto;html=1;entryX=1;entryY=0.5;entryDx=0;entryDy=0;entryPerimeter=0;" parent="S1VS0w1-dyVBxJRP3deN-3" source="S1VS0w1-dyVBxJRP3deN-11" target="S1VS0w1-dyVBxJRP3deN-12" edge="1">
          <mxGeometry relative="1" as="geometry">
            <Array as="points">
              <mxPoint x="430" y="410" />
              <mxPoint x="430" y="500" />
            </Array>
          </mxGeometry>
        </mxCell>
        <mxCell id="S1VS0w1-dyVBxJRP3deN-18" value="MongoDB - Shard 1&lt;div&gt;Repl 1&lt;/div&gt;" style="shape=cylinder3;whiteSpace=wrap;html=1;boundedLbl=1;backgroundOutline=1;size=15;fillColor=#d5e8d4;gradientColor=#97d077;strokeColor=#82b366;" parent="S1VS0w1-dyVBxJRP3deN-3" vertex="1">
          <mxGeometry x="530" y="10" width="60" height="80" as="geometry" />
        </mxCell>
        <mxCell id="S1VS0w1-dyVBxJRP3deN-19" value="MongoDB - Shard 1&lt;div&gt;Repl 2&lt;/div&gt;" style="shape=cylinder3;whiteSpace=wrap;html=1;boundedLbl=1;backgroundOutline=1;size=15;fillColor=#d5e8d4;gradientColor=#97d077;strokeColor=#82b366;" parent="S1VS0w1-dyVBxJRP3deN-3" vertex="1">
          <mxGeometry x="530" y="110" width="60" height="80" as="geometry" />
        </mxCell>
        <mxCell id="S1VS0w1-dyVBxJRP3deN-20" value="MongoDB - Shard 1&lt;div&gt;Repl 3&lt;/div&gt;" style="shape=cylinder3;whiteSpace=wrap;html=1;boundedLbl=1;backgroundOutline=1;size=15;fillColor=#d5e8d4;gradientColor=#97d077;strokeColor=#82b366;" parent="S1VS0w1-dyVBxJRP3deN-3" vertex="1">
          <mxGeometry x="530" y="213.5" width="60" height="80" as="geometry" />
        </mxCell>
        <mxCell id="S1VS0w1-dyVBxJRP3deN-21" value="MongoDB - Shard 2&lt;div&gt;Repl 1&lt;/div&gt;" style="shape=cylinder3;whiteSpace=wrap;html=1;boundedLbl=1;backgroundOutline=1;size=15;fillColor=#cdeb8b;strokeColor=#36393d;" parent="S1VS0w1-dyVBxJRP3deN-3" vertex="1">
          <mxGeometry x="530" y="410" width="60" height="80" as="geometry" />
        </mxCell>
        <mxCell id="S1VS0w1-dyVBxJRP3deN-22" value="MongoDB - Shard 2&lt;div&gt;Repl 2&lt;/div&gt;" style="shape=cylinder3;whiteSpace=wrap;html=1;boundedLbl=1;backgroundOutline=1;size=15;fillColor=#cdeb8b;strokeColor=#36393d;" parent="S1VS0w1-dyVBxJRP3deN-3" vertex="1">
          <mxGeometry x="530" y="510" width="60" height="80" as="geometry" />
        </mxCell>
        <mxCell id="S1VS0w1-dyVBxJRP3deN-23" value="MongoDB - Shard 2&lt;div&gt;Repl 3&lt;/div&gt;" style="shape=cylinder3;whiteSpace=wrap;html=1;boundedLbl=1;backgroundOutline=1;size=15;fillColor=#cdeb8b;strokeColor=#36393d;" parent="S1VS0w1-dyVBxJRP3deN-3" vertex="1">
          <mxGeometry x="530" y="613.5" width="60" height="80" as="geometry" />
        </mxCell>
        <mxCell id="S1VS0w1-dyVBxJRP3deN-24" style="edgeStyle=orthogonalEdgeStyle;rounded=0;orthogonalLoop=1;jettySize=auto;html=1;entryX=0;entryY=0.5;entryDx=0;entryDy=0;entryPerimeter=0;" parent="S1VS0w1-dyVBxJRP3deN-3" source="S1VS0w1-dyVBxJRP3deN-11" target="S1VS0w1-dyVBxJRP3deN-21" edge="1">
          <mxGeometry relative="1" as="geometry">
            <Array as="points">
              <mxPoint x="370" y="530" />
              <mxPoint x="500" y="530" />
              <mxPoint x="500" y="450" />
            </Array>
          </mxGeometry>
        </mxCell>
        <mxCell id="S1VS0w1-dyVBxJRP3deN-25" style="edgeStyle=orthogonalEdgeStyle;rounded=0;orthogonalLoop=1;jettySize=auto;html=1;entryX=0;entryY=0.5;entryDx=0;entryDy=0;entryPerimeter=0;" parent="S1VS0w1-dyVBxJRP3deN-3" source="S1VS0w1-dyVBxJRP3deN-11" target="S1VS0w1-dyVBxJRP3deN-22" edge="1">
          <mxGeometry relative="1" as="geometry">
            <Array as="points">
              <mxPoint x="370" y="550" />
            </Array>
          </mxGeometry>
        </mxCell>
        <mxCell id="S1VS0w1-dyVBxJRP3deN-26" style="edgeStyle=orthogonalEdgeStyle;rounded=0;orthogonalLoop=1;jettySize=auto;html=1;entryX=0;entryY=0.5;entryDx=0;entryDy=0;entryPerimeter=0;" parent="S1VS0w1-dyVBxJRP3deN-3" source="S1VS0w1-dyVBxJRP3deN-11" target="S1VS0w1-dyVBxJRP3deN-23" edge="1">
          <mxGeometry relative="1" as="geometry">
            <Array as="points">
              <mxPoint x="370" y="654" />
              <mxPoint x="465" y="654" />
            </Array>
          </mxGeometry>
        </mxCell>
        <mxCell id="S1VS0w1-dyVBxJRP3deN-27" style="edgeStyle=orthogonalEdgeStyle;rounded=0;orthogonalLoop=1;jettySize=auto;html=1;entryX=0;entryY=0.5;entryDx=0;entryDy=0;entryPerimeter=0;" parent="S1VS0w1-dyVBxJRP3deN-3" source="S1VS0w1-dyVBxJRP3deN-10" target="S1VS0w1-dyVBxJRP3deN-18" edge="1">
          <mxGeometry relative="1" as="geometry">
            <Array as="points">
              <mxPoint x="370" y="50" />
            </Array>
          </mxGeometry>
        </mxCell>
        <mxCell id="S1VS0w1-dyVBxJRP3deN-28" style="edgeStyle=orthogonalEdgeStyle;rounded=0;orthogonalLoop=1;jettySize=auto;html=1;entryX=0;entryY=0.5;entryDx=0;entryDy=0;entryPerimeter=0;" parent="S1VS0w1-dyVBxJRP3deN-3" source="S1VS0w1-dyVBxJRP3deN-10" target="S1VS0w1-dyVBxJRP3deN-19" edge="1">
          <mxGeometry relative="1" as="geometry">
            <Array as="points">
              <mxPoint x="370" y="150" />
            </Array>
          </mxGeometry>
        </mxCell>
        <mxCell id="S1VS0w1-dyVBxJRP3deN-29" style="edgeStyle=orthogonalEdgeStyle;rounded=0;orthogonalLoop=1;jettySize=auto;html=1;entryX=0;entryY=0.431;entryDx=0;entryDy=0;entryPerimeter=0;" parent="S1VS0w1-dyVBxJRP3deN-3" source="S1VS0w1-dyVBxJRP3deN-10" target="S1VS0w1-dyVBxJRP3deN-20" edge="1">
          <mxGeometry relative="1" as="geometry">
            <Array as="points">
              <mxPoint x="370" y="248" />
            </Array>
          </mxGeometry>
        </mxCell>
        <mxCell id="S1VS0w1-dyVBxJRP3deN-30" value="App Instance 1" style="text;html=1;align=center;verticalAlign=middle;whiteSpace=wrap;rounded=0;" parent="S1VS0w1-dyVBxJRP3deN-3" vertex="1">
          <mxGeometry x="10" y="10" width="60" height="30" as="geometry" />
        </mxCell>
        <mxCell id="S1VS0w1-dyVBxJRP3deN-31" value="" style="group" parent="S1VS0w1-dyVBxJRP3deN-1" vertex="1" connectable="0">
          <mxGeometry x="-64" y="340" width="630" height="710" as="geometry" />
        </mxCell>
        <mxCell id="S1VS0w1-dyVBxJRP3deN-32" style="edgeStyle=orthogonalEdgeStyle;rounded=0;orthogonalLoop=1;jettySize=auto;html=1;" parent="S1VS0w1-dyVBxJRP3deN-31" source="S1VS0w1-dyVBxJRP3deN-34" edge="1">
          <mxGeometry relative="1" as="geometry">
            <mxPoint x="-460" y="290" as="targetPoint" />
            <Array as="points">
              <mxPoint x="-229" y="690" />
              <mxPoint x="-229" y="291" />
            </Array>
          </mxGeometry>
        </mxCell>
        <mxCell id="S1VS0w1-dyVBxJRP3deN-33" value="Регистрация" style="edgeLabel;html=1;align=center;verticalAlign=middle;resizable=0;points=[];" parent="S1VS0w1-dyVBxJRP3deN-32" vertex="1" connectable="0">
          <mxGeometry x="-0.0012" y="1" relative="1" as="geometry">
            <mxPoint as="offset" />
          </mxGeometry>
        </mxCell>
        <mxCell id="S1VS0w1-dyVBxJRP3deN-34" value="" style="rounded=0;whiteSpace=wrap;html=1;fillColor=#eeeeee;strokeColor=#36393d;" parent="S1VS0w1-dyVBxJRP3deN-31" vertex="1">
          <mxGeometry width="630" height="710" as="geometry" />
        </mxCell>
        <mxCell id="S1VS0w1-dyVBxJRP3deN-35" value="Redis&lt;div&gt;Cache&lt;/div&gt;" style="shape=cylinder3;whiteSpace=wrap;html=1;boundedLbl=1;backgroundOutline=1;size=15;fillColor=#fad9d5;strokeColor=#ae4132;" parent="S1VS0w1-dyVBxJRP3deN-31" vertex="1">
          <mxGeometry x="150" y="170" width="60" height="80" as="geometry" />
        </mxCell>
        <mxCell id="S1VS0w1-dyVBxJRP3deN-36" style="edgeStyle=orthogonalEdgeStyle;rounded=0;orthogonalLoop=1;jettySize=auto;html=1;entryX=0;entryY=0;entryDx=0;entryDy=52.5;entryPerimeter=0;" parent="S1VS0w1-dyVBxJRP3deN-31" target="S1VS0w1-dyVBxJRP3deN-35" edge="1">
          <mxGeometry relative="1" as="geometry">
            <Array as="points">
              <mxPoint x="80" y="223" />
            </Array>
            <mxPoint x="80" y="320" as="sourcePoint" />
          </mxGeometry>
        </mxCell>
        <mxCell id="S1VS0w1-dyVBxJRP3deN-37" value="Mongos Router" style="shape=cylinder3;whiteSpace=wrap;html=1;boundedLbl=1;backgroundOutline=1;size=15;fillColor=#b0e3e6;strokeColor=#0e8088;" parent="S1VS0w1-dyVBxJRP3deN-31" vertex="1">
          <mxGeometry x="220" y="310" width="60" height="80" as="geometry" />
        </mxCell>
        <mxCell id="S1VS0w1-dyVBxJRP3deN-38" value="pymongo-api" style="rounded=1;whiteSpace=wrap;html=1;fillColor=#1ba1e2;fontColor=#ffffff;strokeColor=#006EAF;" parent="S1VS0w1-dyVBxJRP3deN-31" vertex="1">
          <mxGeometry x="20" y="320" width="120" height="60" as="geometry" />
        </mxCell>
        <mxCell id="S1VS0w1-dyVBxJRP3deN-39" style="edgeStyle=orthogonalEdgeStyle;rounded=0;orthogonalLoop=1;jettySize=auto;html=1;exitX=1;exitY=0.5;exitDx=0;exitDy=0;entryX=0;entryY=0.5;entryDx=0;entryDy=0;entryPerimeter=0;" parent="S1VS0w1-dyVBxJRP3deN-31" source="S1VS0w1-dyVBxJRP3deN-38" target="S1VS0w1-dyVBxJRP3deN-37" edge="1">
          <mxGeometry relative="1" as="geometry" />
        </mxCell>
        <mxCell id="S1VS0w1-dyVBxJRP3deN-40" value="MongoDB - Shard 1" style="shape=cylinder3;whiteSpace=wrap;html=1;boundedLbl=1;backgroundOutline=1;size=15;fillColor=#60a917;fontColor=#ffffff;strokeColor=#2D7600;" parent="S1VS0w1-dyVBxJRP3deN-31" vertex="1">
          <mxGeometry x="340" y="260" width="60" height="80" as="geometry" />
        </mxCell>
        <mxCell id="S1VS0w1-dyVBxJRP3deN-41" value="MongoDB - Shard 2" style="shape=cylinder3;whiteSpace=wrap;html=1;boundedLbl=1;backgroundOutline=1;size=15;fillColor=#60a917;fontColor=#ffffff;strokeColor=#2D7600;" parent="S1VS0w1-dyVBxJRP3deN-31" vertex="1">
          <mxGeometry x="340" y="370" width="60" height="80" as="geometry" />
        </mxCell>
        <mxCell id="S1VS0w1-dyVBxJRP3deN-42" value="Mongo ConfigSrv" style="shape=cylinder3;whiteSpace=wrap;html=1;boundedLbl=1;backgroundOutline=1;size=15;fillColor=#fad7ac;strokeColor=#b46504;" parent="S1VS0w1-dyVBxJRP3deN-31" vertex="1">
          <mxGeometry x="220" y="460" width="60" height="80" as="geometry" />
        </mxCell>
        <mxCell id="S1VS0w1-dyVBxJRP3deN-43" style="edgeStyle=orthogonalEdgeStyle;rounded=0;orthogonalLoop=1;jettySize=auto;html=1;entryX=0;entryY=0.5;entryDx=0;entryDy=0;entryPerimeter=0;" parent="S1VS0w1-dyVBxJRP3deN-31" source="S1VS0w1-dyVBxJRP3deN-37" target="S1VS0w1-dyVBxJRP3deN-40" edge="1">
          <mxGeometry relative="1" as="geometry" />
        </mxCell>
        <mxCell id="S1VS0w1-dyVBxJRP3deN-44" style="edgeStyle=orthogonalEdgeStyle;rounded=0;orthogonalLoop=1;jettySize=auto;html=1;entryX=0;entryY=0.5;entryDx=0;entryDy=0;entryPerimeter=0;" parent="S1VS0w1-dyVBxJRP3deN-31" source="S1VS0w1-dyVBxJRP3deN-37" target="S1VS0w1-dyVBxJRP3deN-41" edge="1">
          <mxGeometry relative="1" as="geometry" />
        </mxCell>
        <mxCell id="S1VS0w1-dyVBxJRP3deN-45" style="edgeStyle=orthogonalEdgeStyle;rounded=0;orthogonalLoop=1;jettySize=auto;html=1;entryX=0.5;entryY=0;entryDx=0;entryDy=0;entryPerimeter=0;" parent="S1VS0w1-dyVBxJRP3deN-31" source="S1VS0w1-dyVBxJRP3deN-37" target="S1VS0w1-dyVBxJRP3deN-42" edge="1">
          <mxGeometry relative="1" as="geometry" />
        </mxCell>
        <mxCell id="S1VS0w1-dyVBxJRP3deN-46" style="edgeStyle=orthogonalEdgeStyle;rounded=0;orthogonalLoop=1;jettySize=auto;html=1;entryX=1;entryY=0.5;entryDx=0;entryDy=0;entryPerimeter=0;" parent="S1VS0w1-dyVBxJRP3deN-31" source="S1VS0w1-dyVBxJRP3deN-40" target="S1VS0w1-dyVBxJRP3deN-42" edge="1">
          <mxGeometry relative="1" as="geometry">
            <Array as="points">
              <mxPoint x="470" y="300" />
              <mxPoint x="470" y="500" />
            </Array>
          </mxGeometry>
        </mxCell>
        <mxCell id="S1VS0w1-dyVBxJRP3deN-47" style="edgeStyle=orthogonalEdgeStyle;rounded=0;orthogonalLoop=1;jettySize=auto;html=1;entryX=1;entryY=0.5;entryDx=0;entryDy=0;entryPerimeter=0;" parent="S1VS0w1-dyVBxJRP3deN-31" source="S1VS0w1-dyVBxJRP3deN-41" target="S1VS0w1-dyVBxJRP3deN-42" edge="1">
          <mxGeometry relative="1" as="geometry">
            <Array as="points">
              <mxPoint x="430" y="410" />
              <mxPoint x="430" y="500" />
            </Array>
          </mxGeometry>
        </mxCell>
        <mxCell id="S1VS0w1-dyVBxJRP3deN-48" value="MongoDB - Shard 1&lt;div&gt;Repl 1&lt;/div&gt;" style="shape=cylinder3;whiteSpace=wrap;html=1;boundedLbl=1;backgroundOutline=1;size=15;fillColor=#d5e8d4;gradientColor=#97d077;strokeColor=#82b366;" parent="S1VS0w1-dyVBxJRP3deN-31" vertex="1">
          <mxGeometry x="530" y="10" width="60" height="80" as="geometry" />
        </mxCell>
        <mxCell id="S1VS0w1-dyVBxJRP3deN-49" value="MongoDB - Shard 1&lt;div&gt;Repl 2&lt;/div&gt;" style="shape=cylinder3;whiteSpace=wrap;html=1;boundedLbl=1;backgroundOutline=1;size=15;fillColor=#d5e8d4;gradientColor=#97d077;strokeColor=#82b366;" parent="S1VS0w1-dyVBxJRP3deN-31" vertex="1">
          <mxGeometry x="530" y="110" width="60" height="80" as="geometry" />
        </mxCell>
        <mxCell id="S1VS0w1-dyVBxJRP3deN-50" value="MongoDB - Shard 1&lt;div&gt;Repl 3&lt;/div&gt;" style="shape=cylinder3;whiteSpace=wrap;html=1;boundedLbl=1;backgroundOutline=1;size=15;fillColor=#d5e8d4;gradientColor=#97d077;strokeColor=#82b366;" parent="S1VS0w1-dyVBxJRP3deN-31" vertex="1">
          <mxGeometry x="530" y="213.5" width="60" height="80" as="geometry" />
        </mxCell>
        <mxCell id="S1VS0w1-dyVBxJRP3deN-51" value="MongoDB - Shard 2&lt;div&gt;Repl 1&lt;/div&gt;" style="shape=cylinder3;whiteSpace=wrap;html=1;boundedLbl=1;backgroundOutline=1;size=15;fillColor=#cdeb8b;strokeColor=#36393d;" parent="S1VS0w1-dyVBxJRP3deN-31" vertex="1">
          <mxGeometry x="530" y="410" width="60" height="80" as="geometry" />
        </mxCell>
        <mxCell id="S1VS0w1-dyVBxJRP3deN-52" value="MongoDB - Shard 2&lt;div&gt;Repl 2&lt;/div&gt;" style="shape=cylinder3;whiteSpace=wrap;html=1;boundedLbl=1;backgroundOutline=1;size=15;fillColor=#cdeb8b;strokeColor=#36393d;" parent="S1VS0w1-dyVBxJRP3deN-31" vertex="1">
          <mxGeometry x="530" y="510" width="60" height="80" as="geometry" />
        </mxCell>
        <mxCell id="S1VS0w1-dyVBxJRP3deN-53" value="MongoDB - Shard 2&lt;div&gt;Repl 3&lt;/div&gt;" style="shape=cylinder3;whiteSpace=wrap;html=1;boundedLbl=1;backgroundOutline=1;size=15;fillColor=#cdeb8b;strokeColor=#36393d;" parent="S1VS0w1-dyVBxJRP3deN-31" vertex="1">
          <mxGeometry x="530" y="613.5" width="60" height="80" as="geometry" />
        </mxCell>
        <mxCell id="S1VS0w1-dyVBxJRP3deN-54" style="edgeStyle=orthogonalEdgeStyle;rounded=0;orthogonalLoop=1;jettySize=auto;html=1;entryX=0;entryY=0.5;entryDx=0;entryDy=0;entryPerimeter=0;" parent="S1VS0w1-dyVBxJRP3deN-31" source="S1VS0w1-dyVBxJRP3deN-41" target="S1VS0w1-dyVBxJRP3deN-51" edge="1">
          <mxGeometry relative="1" as="geometry">
            <Array as="points">
              <mxPoint x="370" y="530" />
              <mxPoint x="500" y="530" />
              <mxPoint x="500" y="450" />
            </Array>
          </mxGeometry>
        </mxCell>
        <mxCell id="S1VS0w1-dyVBxJRP3deN-55" style="edgeStyle=orthogonalEdgeStyle;rounded=0;orthogonalLoop=1;jettySize=auto;html=1;entryX=0;entryY=0.5;entryDx=0;entryDy=0;entryPerimeter=0;" parent="S1VS0w1-dyVBxJRP3deN-31" source="S1VS0w1-dyVBxJRP3deN-41" target="S1VS0w1-dyVBxJRP3deN-52" edge="1">
          <mxGeometry relative="1" as="geometry">
            <Array as="points">
              <mxPoint x="370" y="550" />
            </Array>
          </mxGeometry>
        </mxCell>
        <mxCell id="S1VS0w1-dyVBxJRP3deN-56" style="edgeStyle=orthogonalEdgeStyle;rounded=0;orthogonalLoop=1;jettySize=auto;html=1;entryX=0;entryY=0.5;entryDx=0;entryDy=0;entryPerimeter=0;" parent="S1VS0w1-dyVBxJRP3deN-31" source="S1VS0w1-dyVBxJRP3deN-41" target="S1VS0w1-dyVBxJRP3deN-53" edge="1">
          <mxGeometry relative="1" as="geometry">
            <Array as="points">
              <mxPoint x="370" y="654" />
              <mxPoint x="465" y="654" />
            </Array>
          </mxGeometry>
        </mxCell>
        <mxCell id="S1VS0w1-dyVBxJRP3deN-57" style="edgeStyle=orthogonalEdgeStyle;rounded=0;orthogonalLoop=1;jettySize=auto;html=1;entryX=0;entryY=0.5;entryDx=0;entryDy=0;entryPerimeter=0;" parent="S1VS0w1-dyVBxJRP3deN-31" source="S1VS0w1-dyVBxJRP3deN-40" target="S1VS0w1-dyVBxJRP3deN-48" edge="1">
          <mxGeometry relative="1" as="geometry">
            <Array as="points">
              <mxPoint x="370" y="50" />
            </Array>
          </mxGeometry>
        </mxCell>
        <mxCell id="S1VS0w1-dyVBxJRP3deN-58" style="edgeStyle=orthogonalEdgeStyle;rounded=0;orthogonalLoop=1;jettySize=auto;html=1;entryX=0;entryY=0.5;entryDx=0;entryDy=0;entryPerimeter=0;" parent="S1VS0w1-dyVBxJRP3deN-31" source="S1VS0w1-dyVBxJRP3deN-40" target="S1VS0w1-dyVBxJRP3deN-49" edge="1">
          <mxGeometry relative="1" as="geometry">
            <Array as="points">
              <mxPoint x="370" y="150" />
            </Array>
          </mxGeometry>
        </mxCell>
        <mxCell id="S1VS0w1-dyVBxJRP3deN-59" style="edgeStyle=orthogonalEdgeStyle;rounded=0;orthogonalLoop=1;jettySize=auto;html=1;entryX=0;entryY=0.431;entryDx=0;entryDy=0;entryPerimeter=0;" parent="S1VS0w1-dyVBxJRP3deN-31" source="S1VS0w1-dyVBxJRP3deN-40" target="S1VS0w1-dyVBxJRP3deN-50" edge="1">
          <mxGeometry relative="1" as="geometry">
            <Array as="points">
              <mxPoint x="370" y="248" />
            </Array>
          </mxGeometry>
        </mxCell>
        <mxCell id="S1VS0w1-dyVBxJRP3deN-60" value="App Instance 2" style="text;html=1;align=center;verticalAlign=middle;whiteSpace=wrap;rounded=0;" parent="S1VS0w1-dyVBxJRP3deN-31" vertex="1">
          <mxGeometry x="10" y="10" width="60" height="30" as="geometry" />
        </mxCell>
        <mxCell id="S1VS0w1-dyVBxJRP3deN-61" value="Consul" style="rounded=1;whiteSpace=wrap;html=1;fillColor=#fff2cc;strokeColor=#d6b656;" parent="S1VS0w1-dyVBxJRP3deN-1" vertex="1">
          <mxGeometry x="-644" y="600" width="120" height="60" as="geometry" />
        </mxCell>
        <mxCell id="S1VS0w1-dyVBxJRP3deN-62" style="edgeStyle=orthogonalEdgeStyle;rounded=0;orthogonalLoop=1;jettySize=auto;html=1;entryX=0.5;entryY=0;entryDx=0;entryDy=0;" parent="S1VS0w1-dyVBxJRP3deN-1" source="S1VS0w1-dyVBxJRP3deN-64" target="S1VS0w1-dyVBxJRP3deN-61" edge="1">
          <mxGeometry relative="1" as="geometry" />
        </mxCell>
        <mxCell id="S1VS0w1-dyVBxJRP3deN-63" value="Получить список сервисов" style="edgeLabel;html=1;align=center;verticalAlign=middle;resizable=0;points=[];" parent="S1VS0w1-dyVBxJRP3deN-62" vertex="1" connectable="0">
          <mxGeometry x="-0.205" y="1" relative="1" as="geometry">
            <mxPoint as="offset" />
          </mxGeometry>
        </mxCell>
        <mxCell id="S1VS0w1-dyVBxJRP3deN-64" value="consul_kv" style="rounded=1;whiteSpace=wrap;html=1;fillColor=#ffff88;strokeColor=#36393d;" parent="S1VS0w1-dyVBxJRP3deN-1" vertex="1">
          <mxGeometry x="-644" y="340" width="120" height="60" as="geometry" />
        </mxCell>
        <mxCell id="S1VS0w1-dyVBxJRP3deN-65" style="edgeStyle=orthogonalEdgeStyle;rounded=0;orthogonalLoop=1;jettySize=auto;html=1;entryX=1;entryY=0.5;entryDx=0;entryDy=0;" parent="S1VS0w1-dyVBxJRP3deN-1" source="S1VS0w1-dyVBxJRP3deN-4" target="S1VS0w1-dyVBxJRP3deN-61" edge="1">
          <mxGeometry relative="1" as="geometry">
            <Array as="points">
              <mxPoint x="-294" y="280" />
              <mxPoint x="-294" y="630" />
            </Array>
          </mxGeometry>
        </mxCell>
        <mxCell id="S1VS0w1-dyVBxJRP3deN-66" value="Регистрация" style="edgeLabel;html=1;align=center;verticalAlign=middle;resizable=0;points=[];" parent="S1VS0w1-dyVBxJRP3deN-65" vertex="1" connectable="0">
          <mxGeometry x="-0.2395" y="1" relative="1" as="geometry">
            <mxPoint as="offset" />
          </mxGeometry>
        </mxCell>
        <mxCell id="S1VS0w1-dyVBxJRP3deN-67" style="edgeStyle=orthogonalEdgeStyle;rounded=0;orthogonalLoop=1;jettySize=auto;html=1;entryX=0;entryY=0.5;entryDx=0;entryDy=0;" parent="S1VS0w1-dyVBxJRP3deN-1" source="S1VS0w1-dyVBxJRP3deN-2" target="S1VS0w1-dyVBxJRP3deN-8" edge="1">
          <mxGeometry relative="1" as="geometry">
            <Array as="points">
              <mxPoint x="-404" y="295" />
              <mxPoint x="-404" y="-50" />
            </Array>
          </mxGeometry>
        </mxCell>
        <mxCell id="S1VS0w1-dyVBxJRP3deN-68" value="Запросы к Instance 1" style="edgeLabel;html=1;align=center;verticalAlign=middle;resizable=0;points=[];" parent="S1VS0w1-dyVBxJRP3deN-67" vertex="1" connectable="0">
          <mxGeometry x="0.4584" y="2" relative="1" as="geometry">
            <mxPoint x="-1" as="offset" />
          </mxGeometry>
        </mxCell>
        <mxCell id="S1VS0w1-dyVBxJRP3deN-69" style="edgeStyle=orthogonalEdgeStyle;rounded=0;orthogonalLoop=1;jettySize=auto;html=1;entryX=0;entryY=0.5;entryDx=0;entryDy=0;" parent="S1VS0w1-dyVBxJRP3deN-1" source="S1VS0w1-dyVBxJRP3deN-2" target="S1VS0w1-dyVBxJRP3deN-38" edge="1">
          <mxGeometry relative="1" as="geometry">
            <Array as="points">
              <mxPoint x="-404" y="295" />
              <mxPoint x="-404" y="690" />
            </Array>
          </mxGeometry>
        </mxCell>
        <mxCell id="S1VS0w1-dyVBxJRP3deN-70" value="Запросы к Instance 2" style="edgeLabel;html=1;align=center;verticalAlign=middle;resizable=0;points=[];" parent="S1VS0w1-dyVBxJRP3deN-69" vertex="1" connectable="0">
          <mxGeometry x="0.576" y="1" relative="1" as="geometry">
            <mxPoint as="offset" />
          </mxGeometry>
        </mxCell>
        <mxCell id="yWs4MdgdHGeVQq2sNOlp-7" value="" style="group" parent="S1VS0w1-dyVBxJRP3deN-1" vertex="1" connectable="0">
          <mxGeometry x="-1634" y="-310" width="420" height="370" as="geometry" />
        </mxCell>
        <mxCell id="yWs4MdgdHGeVQq2sNOlp-3" value="" style="rounded=0;whiteSpace=wrap;html=1;fillColor=#dae8fc;gradientColor=#7ea6e0;strokeColor=#6c8ebf;" parent="yWs4MdgdHGeVQq2sNOlp-7" vertex="1">
          <mxGeometry width="420" height="370" as="geometry" />
        </mxCell>
        <mxCell id="yWs4MdgdHGeVQq2sNOlp-2" value="&lt;font style=&quot;font-size: 20px;&quot;&gt;CDN-сервер&lt;/font&gt;" style="rounded=1;whiteSpace=wrap;html=1;fillColor=#d0cee2;strokeColor=#56517e;" parent="yWs4MdgdHGeVQq2sNOlp-7" vertex="1">
          <mxGeometry x="30" y="50" width="360" height="210" as="geometry" />
        </mxCell>
        <mxCell id="yWs4MdgdHGeVQq2sNOlp-4" value="Cache" style="shape=cylinder3;whiteSpace=wrap;html=1;boundedLbl=1;backgroundOutline=1;size=15;fillColor=#f8cecc;gradientColor=#ea6b66;strokeColor=#b85450;" parent="yWs4MdgdHGeVQq2sNOlp-7" vertex="1">
          <mxGeometry x="290" y="280" width="60" height="80" as="geometry" />
        </mxCell>
        <mxCell id="yWs4MdgdHGeVQq2sNOlp-5" value="Регион 1" style="text;html=1;align=center;verticalAlign=middle;whiteSpace=wrap;rounded=0;" parent="yWs4MdgdHGeVQq2sNOlp-7" vertex="1">
          <mxGeometry x="1" width="60" height="30" as="geometry" />
        </mxCell>
        <mxCell id="yWs4MdgdHGeVQq2sNOlp-6" style="edgeStyle=orthogonalEdgeStyle;rounded=0;orthogonalLoop=1;jettySize=auto;html=1;entryX=0;entryY=0.5;entryDx=0;entryDy=0;entryPerimeter=0;" parent="yWs4MdgdHGeVQq2sNOlp-7" source="yWs4MdgdHGeVQq2sNOlp-2" target="yWs4MdgdHGeVQq2sNOlp-4" edge="1">
          <mxGeometry relative="1" as="geometry" />
        </mxCell>
        <mxCell id="yWs4MdgdHGeVQq2sNOlp-8" value="" style="endArrow=classic;html=1;rounded=0;entryX=0;entryY=0.5;entryDx=0;entryDy=0;" parent="S1VS0w1-dyVBxJRP3deN-1" target="yWs4MdgdHGeVQq2sNOlp-2" edge="1">
          <mxGeometry width="50" height="50" relative="1" as="geometry">
            <mxPoint x="-1784" y="-155" as="sourcePoint" />
            <mxPoint x="-1744" y="-150" as="targetPoint" />
          </mxGeometry>
        </mxCell>
        <mxCell id="yWs4MdgdHGeVQq2sNOlp-10" value="" style="group" parent="S1VS0w1-dyVBxJRP3deN-1" vertex="1" connectable="0">
          <mxGeometry x="-1634" y="140" width="420" height="370" as="geometry" />
        </mxCell>
        <mxCell id="yWs4MdgdHGeVQq2sNOlp-11" value="" style="rounded=0;whiteSpace=wrap;html=1;fillColor=#dae8fc;gradientColor=#7ea6e0;strokeColor=#6c8ebf;" parent="yWs4MdgdHGeVQq2sNOlp-10" vertex="1">
          <mxGeometry width="420" height="370" as="geometry" />
        </mxCell>
        <mxCell id="yWs4MdgdHGeVQq2sNOlp-12" value="&lt;font style=&quot;font-size: 20px;&quot;&gt;CDN-сервер&lt;/font&gt;" style="rounded=1;whiteSpace=wrap;html=1;fillColor=#d0cee2;strokeColor=#56517e;" parent="yWs4MdgdHGeVQq2sNOlp-10" vertex="1">
          <mxGeometry x="30" y="50" width="360" height="210" as="geometry" />
        </mxCell>
        <mxCell id="yWs4MdgdHGeVQq2sNOlp-13" value="Cache" style="shape=cylinder3;whiteSpace=wrap;html=1;boundedLbl=1;backgroundOutline=1;size=15;fillColor=#f8cecc;gradientColor=#ea6b66;strokeColor=#b85450;" parent="yWs4MdgdHGeVQq2sNOlp-10" vertex="1">
          <mxGeometry x="290" y="280" width="60" height="80" as="geometry" />
        </mxCell>
        <mxCell id="yWs4MdgdHGeVQq2sNOlp-14" value="Регион 2" style="text;html=1;align=center;verticalAlign=middle;whiteSpace=wrap;rounded=0;" parent="yWs4MdgdHGeVQq2sNOlp-10" vertex="1">
          <mxGeometry x="1" width="60" height="30" as="geometry" />
        </mxCell>
        <mxCell id="yWs4MdgdHGeVQq2sNOlp-15" style="edgeStyle=orthogonalEdgeStyle;rounded=0;orthogonalLoop=1;jettySize=auto;html=1;entryX=0;entryY=0.5;entryDx=0;entryDy=0;entryPerimeter=0;" parent="yWs4MdgdHGeVQq2sNOlp-10" source="yWs4MdgdHGeVQq2sNOlp-12" target="yWs4MdgdHGeVQq2sNOlp-13" edge="1">
          <mxGeometry relative="1" as="geometry" />
        </mxCell>
        <mxCell id="yWs4MdgdHGeVQq2sNOlp-16" value="" style="endArrow=classic;html=1;rounded=0;entryX=0;entryY=0.5;entryDx=0;entryDy=0;" parent="S1VS0w1-dyVBxJRP3deN-1" target="yWs4MdgdHGeVQq2sNOlp-12" edge="1">
          <mxGeometry width="50" height="50" relative="1" as="geometry">
            <mxPoint x="-1784" y="295" as="sourcePoint" />
            <mxPoint x="-1744" y="300" as="targetPoint" />
          </mxGeometry>
        </mxCell>
        <mxCell id="yWs4MdgdHGeVQq2sNOlp-17" value="" style="group" parent="S1VS0w1-dyVBxJRP3deN-1" vertex="1" connectable="0">
          <mxGeometry x="-1634" y="590" width="420" height="370" as="geometry" />
        </mxCell>
        <mxCell id="yWs4MdgdHGeVQq2sNOlp-18" value="" style="rounded=0;whiteSpace=wrap;html=1;fillColor=#dae8fc;gradientColor=#7ea6e0;strokeColor=#6c8ebf;" parent="yWs4MdgdHGeVQq2sNOlp-17" vertex="1">
          <mxGeometry width="420" height="370" as="geometry" />
        </mxCell>
        <mxCell id="yWs4MdgdHGeVQq2sNOlp-19" value="&lt;font style=&quot;font-size: 20px;&quot;&gt;CDN-сервер&lt;/font&gt;" style="rounded=1;whiteSpace=wrap;html=1;fillColor=#d0cee2;strokeColor=#56517e;" parent="yWs4MdgdHGeVQq2sNOlp-17" vertex="1">
          <mxGeometry x="30" y="50" width="360" height="210" as="geometry" />
        </mxCell>
        <mxCell id="yWs4MdgdHGeVQq2sNOlp-20" value="Cache" style="shape=cylinder3;whiteSpace=wrap;html=1;boundedLbl=1;backgroundOutline=1;size=15;fillColor=#f8cecc;gradientColor=#ea6b66;strokeColor=#b85450;" parent="yWs4MdgdHGeVQq2sNOlp-17" vertex="1">
          <mxGeometry x="290" y="280" width="60" height="80" as="geometry" />
        </mxCell>
        <mxCell id="yWs4MdgdHGeVQq2sNOlp-21" value="Регион 3" style="text;html=1;align=center;verticalAlign=middle;whiteSpace=wrap;rounded=0;" parent="yWs4MdgdHGeVQq2sNOlp-17" vertex="1">
          <mxGeometry x="1" width="60" height="30" as="geometry" />
        </mxCell>
        <mxCell id="yWs4MdgdHGeVQq2sNOlp-22" style="edgeStyle=orthogonalEdgeStyle;rounded=0;orthogonalLoop=1;jettySize=auto;html=1;entryX=0;entryY=0.5;entryDx=0;entryDy=0;entryPerimeter=0;" parent="yWs4MdgdHGeVQq2sNOlp-17" source="yWs4MdgdHGeVQq2sNOlp-19" target="yWs4MdgdHGeVQq2sNOlp-20" edge="1">
          <mxGeometry relative="1" as="geometry" />
        </mxCell>
        <mxCell id="yWs4MdgdHGeVQq2sNOlp-23" value="" style="endArrow=classic;html=1;rounded=0;entryX=0;entryY=0.5;entryDx=0;entryDy=0;" parent="S1VS0w1-dyVBxJRP3deN-1" target="yWs4MdgdHGeVQq2sNOlp-19" edge="1">
          <mxGeometry width="50" height="50" relative="1" as="geometry">
            <mxPoint x="-1784" y="745" as="sourcePoint" />
            <mxPoint x="-1744" y="750" as="targetPoint" />
          </mxGeometry>
        </mxCell>
        <mxCell id="yWs4MdgdHGeVQq2sNOlp-24" style="edgeStyle=orthogonalEdgeStyle;rounded=0;orthogonalLoop=1;jettySize=auto;html=1;entryX=0;entryY=0.5;entryDx=0;entryDy=0;" parent="S1VS0w1-dyVBxJRP3deN-1" source="yWs4MdgdHGeVQq2sNOlp-2" target="S1VS0w1-dyVBxJRP3deN-2" edge="1">
          <mxGeometry relative="1" as="geometry" />
        </mxCell>
        <mxCell id="yWs4MdgdHGeVQq2sNOlp-25" style="edgeStyle=orthogonalEdgeStyle;rounded=0;orthogonalLoop=1;jettySize=auto;html=1;exitX=1;exitY=0.5;exitDx=0;exitDy=0;entryX=0;entryY=0.5;entryDx=0;entryDy=0;" parent="S1VS0w1-dyVBxJRP3deN-1" source="yWs4MdgdHGeVQq2sNOlp-12" target="S1VS0w1-dyVBxJRP3deN-2" edge="1">
          <mxGeometry relative="1" as="geometry" />
        </mxCell>
        <mxCell id="yWs4MdgdHGeVQq2sNOlp-26" style="edgeStyle=orthogonalEdgeStyle;rounded=0;orthogonalLoop=1;jettySize=auto;html=1;exitX=1;exitY=0.5;exitDx=0;exitDy=0;entryX=0;entryY=0.5;entryDx=0;entryDy=0;" parent="S1VS0w1-dyVBxJRP3deN-1" source="yWs4MdgdHGeVQq2sNOlp-19" target="S1VS0w1-dyVBxJRP3deN-2" edge="1">
          <mxGeometry relative="1" as="geometry" />
        </mxCell>
      </root>
    </mxGraphModel>
  </diagram>
</mxfile>
